<?xml version="1.0" encoding="UTF-8" standalone="no"?>
<!-- Created with Inkscape (http://www.inkscape.org/) -->

<svg
   xmlns:dc="http://purl.org/dc/elements/1.1/"
   xmlns:cc="http://creativecommons.org/ns#"
   xmlns:rdf="http://www.w3.org/1999/02/22-rdf-syntax-ns#"
   xmlns:svg="http://www.w3.org/2000/svg"
   xmlns="http://www.w3.org/2000/svg"
   xmlns:sodipodi="http://sodipodi.sourceforge.net/DTD/sodipodi-0.dtd"
   xmlns:inkscape="http://www.inkscape.org/namespaces/inkscape"
   width="300mm"
   height="600mm"
   viewBox="0 0 300 600"
   version="1.1"
   id="svg8"
   inkscape:version="0.92.3 (2405546, 2018-03-11)"
   sodipodi:docname="trees_new.svg">
  <defs
     id="defs2" />
  <sodipodi:namedview
     id="base"
     pagecolor="#ffffff"
     bordercolor="#666666"
     borderopacity="1.0"
     inkscape:pageopacity="0.0"
     inkscape:pageshadow="2"
     inkscape:zoom="0.35355339"
     inkscape:cx="1508.704"
     inkscape:cy="721.63191"
     inkscape:document-units="mm"
     inkscape:current-layer="layer4"
     showgrid="false"
     inkscape:window-width="1920"
     inkscape:window-height="1026"
     inkscape:window-x="0"
     inkscape:window-y="0"
     inkscape:window-maximized="1"
     inkscape:object-nodes="true"
     inkscape:measure-start="556.5,606.188"
     inkscape:measure-end="568.563,606.188" />
  <metadata
     id="metadata5">
    <rdf:RDF>
      <cc:Work
         rdf:about="">
        <dc:format>image/svg+xml</dc:format>
        <dc:type
           rdf:resource="http://purl.org/dc/dcmitype/StillImage" />
        <dc:title></dc:title>
      </cc:Work>
    </rdf:RDF>
  </metadata>
  <g
     inkscape:label="poplar_bottom"
     inkscape:groupmode="layer"
     id="layer1"
     transform="translate(0,303)"
     style="display:none">
    <path
       style="fill:none;stroke:#ff0000;stroke-width:0.08819444;stroke-miterlimit:4;stroke-dasharray:none;stroke-opacity:1"
       d="m 133.89519,-240.29665 c -8.8816,0.0116 -15.69387,1.5749 -25.86871,5.02088 -18.086452,6.12546 -20.433174,8.19976 -21.509282,19.01331 -0.774602,7.78388 -3.850452,12.97669 -8.574669,14.47612 -9.149913,2.90405 -13.387364,15.15339 -8.353496,24.14839 3.019599,5.39574 1.486373,8.16776 -7.561295,13.66997 -8.052038,4.89676 -11.38516,10.034 -11.473201,17.68316 -0.06822,5.92969 -2.579901,14.02259 -5.581573,17.98443 -3.00165,3.96186 -4.504356,9.68774 -3.33933,12.72377 1.165029,3.03601 -0.02941,8.10755 -2.654101,11.27011 -2.624783,3.16257 -3.722301,8.485812 -2.439128,11.829773 1.350605,3.519577 -5.231027,19.098759 -15.629537,36.995157 C 2.0972914,-23.102404 -4.9826827,5.8987336 3.4468181,16.055665 c 2.4587765,2.962645 3.4029824,8.169248 2.0980629,11.569832 -2.9994533,7.816453 4.80146,31.908326 12.980086,40.086941 3.417827,3.417834 7.251574,12.596018 8.519376,20.39567 1.625631,10.001061 4.586419,14.615052 10.044866,15.653302 4.256961,0.80971 12.397833,4.77685 18.090885,8.816 5.693074,4.03916 16.316719,7.34425 23.607861,7.34425 9.966981,0 16.458086,3.30293 26.158615,13.31135 7.09622,7.32144 11.7237,15.21817 10.2836,17.54828 -4.65945,7.53914 11.9349,4.56496 19.17661,-3.43702 5.22487,-5.77342 8.68471,-6.7424 13.97073,-3.91345 3.86424,2.06811 9.50566,2.80847 12.5367,1.64539 6.38127,-2.44875 4.29505,18.18089 -8.89197,87.93416 -3.17262,16.78173 -5.91404,32.98428 -7.10809,41.71064 l -71.53,9.78233 -72.71700726,9.94463 149.34281726,0.0861 28.64838,-0.0331 V 13.934842 h 3.19826 V 294.49734 l 117.49618,-0.13538 -76.62581,-10.0307 -21.48241,-2.73987 c -0.086,-0.2603 -0.18078,-0.52782 -0.29042,-0.81082 -5.25408,-13.56264 -8.55927,-62.22685 -6.79907,-100.10759 1.7315,-37.26269 2.23211,-39.05982 13.57747,-48.74532 17.69705,-15.10789 23.02348,-17.45329 37.43544,-16.48272 18.59046,1.25201 28.5567,-8.74898 27.21643,-27.31204 -0.71988,-9.970029 1.29524,-17.140925 6.40271,-22.784647 7.26064,-8.022907 9.19501,-17.054565 17.96168,-83.863099 4.02524,-30.675167 3.93536,-31.316964 -5.37797,-38.356315 -9.05245,-6.842217 -9.23663,-7.841334 -4.1589,-22.579499 4.81118,-13.964562 4.01304,-30.10225 -2.00041,-40.45438 -1.24579,-2.14476 -1.76948,-7.73709 -1.16375,-12.42715 0.60574,-4.69006 -2.51949,-12.14785 -6.94478,-16.57314 -4.42529,-4.4253 -8.04603,-9.22424 -8.04603,-10.66395 0,-5.33589 -13.11557,-16.88011 -19.17764,-16.88011 -3.44857,0 -8.00209,-3.90268 -10.11928,-8.67234 -2.42535,-5.46394 -9.1773,-9.91589 -18.25108,-12.03389 -12.44527,-2.905 -14.56412,-5.03401 -15.59853,-15.67346 -1.49188,-15.3447 -10.79273,-20.15559 -49.13912,-25.4186 -9.75392,-1.33872 -16.79924,-2.05694 -22.87612,-2.04897 z"
       id="path839"
       inkscape:connector-curvature="0"
       sodipodi:nodetypes="sscccccccccssccsccscccccsccccccccccccsscccscscssssccsss" />
  </g>
  <g
     style="display:none"
     transform="translate(0,303)"
     id="g991"
     inkscape:groupmode="layer"
     inkscape:label="poplar_top">
    <path
       style="fill:none;stroke:#ff0000;stroke-width:0.08819444;stroke-miterlimit:4;stroke-dasharray:none;stroke-opacity:1"
       d="m 133.89519,-240.29665 c -8.8816,0.0116 -15.69387,1.5749 -25.86871,5.02088 -18.086452,6.12546 -20.433174,8.19976 -21.509282,19.01331 -0.774602,7.78388 -3.850452,12.97669 -8.574669,14.47612 -9.149913,2.90405 -13.387364,15.15339 -8.353496,24.14839 3.019599,5.39574 1.486373,8.16776 -7.561295,13.66997 -8.052038,4.89676 -11.38516,10.034 -11.473201,17.68316 -0.06822,5.92969 -2.579901,14.02259 -5.581573,17.98443 -3.00165,3.96186 -4.504356,9.68774 -3.33933,12.72377 1.165029,3.03601 -0.02941,8.10755 -2.654101,11.27011 -2.624783,3.16257 -3.722301,8.485812 -2.439128,11.829773 1.350605,3.519577 -5.231027,19.098759 -15.629537,36.995157 C 2.0972914,-23.102404 -4.9826827,5.8987336 3.4468181,16.055665 c 2.4587765,2.962645 3.4029824,8.169248 2.0980629,11.569832 -2.9994533,7.816453 4.80146,31.908326 12.980086,40.086941 3.417827,3.417834 7.251574,12.596018 8.519376,20.39567 1.625631,10.001061 4.586419,14.615052 10.044866,15.653302 4.256961,0.80971 12.397833,4.77685 18.090885,8.816 5.693074,4.03916 16.316719,7.34425 23.607861,7.34425 9.966981,0 16.458086,3.30293 26.158615,13.31135 7.09622,7.32144 11.7237,15.21817 10.2836,17.54828 -4.65945,7.53914 11.9349,4.56496 19.17661,-3.43702 5.22487,-5.77342 8.68471,-6.7424 13.97073,-3.91345 3.86424,2.06811 9.50566,2.80847 12.5367,1.64539 6.38127,-2.44875 4.29505,18.18089 -8.89197,87.93416 -3.17262,16.78173 -5.91404,32.98428 -7.10809,41.71064 l -71.53,9.78233 -72.71700726,9.94466 149.34281726,0.0861 149.34282,-0.17209 -76.62581,-10.0307 -21.48241,-2.73987 c -0.086,-0.2603 -0.18078,-0.52782 -0.29042,-0.81082 -5.25408,-13.56264 -8.55927,-62.22685 -6.79907,-100.10759 1.7315,-37.26269 2.23211,-39.05982 13.57747,-48.74532 17.69705,-15.10789 23.02348,-17.45329 37.43544,-16.48272 18.59046,1.25201 28.5567,-8.74898 27.21643,-27.31204 -0.71988,-9.970029 1.29524,-17.140925 6.40271,-22.784647 7.26064,-8.022907 9.19501,-17.054565 17.96168,-83.863099 4.02524,-30.675167 3.93536,-31.316964 -5.37797,-38.356315 -9.05245,-6.842217 -9.23663,-7.841334 -4.1589,-22.579499 4.81118,-13.964562 4.01304,-30.10225 -2.00041,-40.45438 -1.24579,-2.14476 -1.76948,-7.73709 -1.16375,-12.42715 0.60574,-4.69006 -2.51949,-12.14785 -6.94478,-16.57314 -4.42529,-4.4253 -8.04603,-9.22424 -8.04603,-10.66395 0,-5.33589 -13.11557,-16.88011 -19.17764,-16.88011 -3.44857,0 -8.00209,-3.90268 -10.11928,-8.67234 -2.42535,-5.46394 -9.1773,-9.91589 -18.25108,-12.03389 -12.44527,-2.905 -14.56412,-5.03401 -15.59853,-15.67346 -1.08965,-11.20754 -6.36121,-16.79392 -24.05693,-21.04316 V 13.934844 h -3.19826 V -234.55437 c -6.00329,-1.29555 -13.06873,-2.48343 -21.88393,-3.69331 -9.75392,-1.33872 -16.79924,-2.05694 -22.87612,-2.04897 z"
       id="path985"
       inkscape:connector-curvature="0"
       sodipodi:nodetypes="sscccccccccssccsccscccccsccccccccsscccscscssssccsccccss" />
  </g>
  <g
     inkscape:groupmode="layer"
     id="layer2"
     inkscape:label="fir_bottom"
     style="display:none">
    <path
       style="fill:none;stroke:#ff0000;stroke-width:0.08819444;stroke-miterlimit:4;stroke-dasharray:none;stroke-opacity:1"
       d="m 159.77216,155.78568 c -1.72488,0 -3.13624,4.93939 -3.13624,10.97659 0,6.03708 -1.41137,10.97659 -3.13625,10.97659 -1.72488,0 -3.13624,-1.41136 -3.13624,-3.13624 0,-1.72488 -1.57596,-3.13625 -3.50211,-3.13625 -1.95646,0 -2.77884,2.76559 -1.86139,6.27249 0.90215,3.44976 0.26032,6.27197 -1.42627,6.27197 -5.12307,0 -11.05428,7.62324 -9.51776,12.23284 1.0643,3.19279 -0.7297,3.9201 -6.80424,2.75849 -8.99101,-1.71872 -10.41944,0.4015 -4.3558,6.46524 3.10056,3.10116 3.03247,4.42619 -0.33538,6.50761 -2.94966,1.82326 -3.17906,3.26241 -0.75758,4.75888 6.8571,4.23728 3.30195,7.56117 -5.41466,5.06119 -6.97669,-2.00081 -8.88576,-1.52479 -8.88576,2.21692 0,2.62122 2.48951,5.41721 5.53248,6.21255 3.04295,0.7957 6.35689,3.59504 7.36441,6.22029 1.38422,3.60704 0.22712,4.35331 -4.73511,3.05562 -5.00169,-1.30777 -6.12257,-0.56018 -4.70411,3.13625 1.91003,4.978 -1.16351,4.82252 -15.479675,-0.78239 -6.032926,-2.36175 -6.062726,-2.21581 -0.77773,3.81889 3.022449,3.45106 4.44559,7.32464 3.162599,8.60775 -1.283123,1.28311 0.124815,3.70807 3.129006,5.38933 8.75074,4.89715 6.33362,7.86003 -5.304069,6.50143 -9.292095,-1.08482 -10.554864,-0.44779 -9.221141,4.6524 1.140518,4.36116 -0.239848,6.04306 -5.268929,6.42237 -3.747868,0.28236 -7.399332,1.09892 -8.115268,1.81488 -3.051135,3.05099 5.327631,17.48703 11.23859,19.36313 3.548615,1.12617 6.452319,4.06969 6.452319,6.54069 0,5.56082 -2.522722,5.51791 -12.54497,-0.21135 -11.825951,-6.76024 -15.45355,-5.55067 -4.704106,1.5684 7.872788,5.21398 8.384728,6.24067 3.136244,6.29986 -5.291275,0.058 -5.536319,0.58854 -1.567863,3.39513 3.539607,2.50365 3.733559,3.72049 0.783416,4.91755 -2.156101,0.87487 -3.920175,3.64011 -3.920175,6.14431 0,3.64368 -1.306823,3.85352 -6.541204,1.05214 -8.056393,-4.31162 -11.4134,-1.6706 -6.066295,4.77232 2.58886,3.11941 2.778212,4.78007 0.545187,4.78007 -1.951633,0 -2.538246,2.35836 -1.364777,5.48854 1.86463,4.9748 1.511271,5.04798 -3.77858,0.78343 -5.349237,-4.31231 -5.689121,-4.182 -4.079338,1.56787 0.96592,3.44974 2.861916,8.97361 4.21318,12.27521 1.919986,4.69114 1.483844,5.41615 -1.99626,3.31814 -3.801563,-2.29158 -3.823367,-1.90728 -0.149344,2.62207 2.367087,2.91838 3.072627,5.35803 1.567862,5.41724 -1.504883,0.061 0.792398,2.12788 5.104599,4.59301 4.312435,2.46499 6.680694,4.53369 5.263761,4.59298 -5.124384,0.22106 6.976213,9.51984 12.388389,9.51984 4.154435,0 4.654788,0.90043 1.984375,3.57084 -2.670408,2.67042 -9.263673,1.46066 -26.146207,-4.79713 -21.681188,-8.03648 -32.276445,-9.24002 -19.056201,-2.16472 4.680005,2.50447 5.935583,5.5839 4.809527,11.79463 -0.838258,4.62298 -2.148621,9.41604 -2.911967,10.65104 -0.763231,1.23499 0.712896,6.27321 3.28042,11.19621 5.734939,10.99704 6.100048,23.0637 0.697114,23.0637 -2.703716,0 -3.781269,4.08543 -3.308324,12.54498 0.583414,10.43649 -0.289901,12.54445 -5.196067,12.54445 -3.892952,0 -7.246427,3.7306 -9.86658,10.97659 -2.183007,6.03707 -5.531777,10.97658 -7.441923,10.97658 -3.844115,0 -3.722986,22.1561 0.155029,28.43083 1.720613,2.78326 0.08882,3.40302 -5.9329707,2.25205 -9.00654688,-1.72167 -10.4876735,0.37936 -4.4932658,6.37379 2.0974272,2.0973 3.8609182,8.31376 3.9201741,13.81413 0.1011081,9.46267 1.2033916,10.3836 20.4917724,17.11577 11.211719,3.91334 23.604889,7.15049 27.539921,7.19799 3.935148,0.0457 7.831031,1.84726 8.658386,4.00338 1.907776,4.97454 52.342149,4.64629 65.146929,-0.42426 16.22918,-6.4267 20.96513,-4.73668 20.96513,7.48067 l 0.002,5.30251 -4.23488,-0.54001 -72.717008,9.94463 -72.71700723,9.9446 149.34282523,0.006 8.04912,-0.009 -0.008,-196.02568 h 3.19825 v 196.02206 l 138.10372,0.006 -76.62582,-10.1162 -41.02746,-5.23224 v -9.11728 c 0,-5.9354 1.0942,-11.46818 2.43137,-12.29434 1.33716,-0.82653 11.56878,-1.84486 22.73712,-2.26446 11.16822,-0.41902 23.99004,-2.01229 28.49283,-3.54087 4.50281,-1.52847 11.55911,-3.24019 15.6807,-3.80441 15.15873,-2.07383 21.6888,-5.89915 28.28251,-16.568 3.71065,-6.004 10.22699,-14.39675 14.48078,-18.65053 4.25365,-4.25363 7.19381,-8.27448 6.5324,-8.93588 -0.66093,-0.66093 -7.34729,0.17939 -14.85902,1.86706 -7.51163,1.68812 -14.13868,2.58625 -14.7278,1.99832 -0.58851,-0.58862 3.12587,-5.66402 8.25429,-11.2789 5.12842,-5.61485 9.3245,-10.89951 9.3245,-11.74345 0,-0.84394 -5.29223,-3.81535 -11.76055,-6.60323 l -11.76051,-5.06842 14.89678,-6.3283 c 8.19316,-3.48057 14.89675,-7.62937 14.89675,-9.21959 0,-1.5865 -1.76458,-2.27785 -3.92072,-1.52755 -2.15607,0.75031 -6.31767,-1.14323 -9.24799,-4.20801 -5.02898,-5.25973 -4.94082,-5.69645 1.56835,-7.78298 6.32455,-2.02737 6.00085,-2.51357 -3.90721,-5.86994 -6.80389,-2.30497 -9.41644,-4.51681 -7.05646,-5.97535 5.54474,-3.42689 4.54464,-8.19931 -1.74149,-8.31784 -4.89847,-0.089 -4.81425,-0.61402 0.7834,-4.87929 3.44991,-2.62855 5.7988,-7.07316 5.22037,-9.87689 -0.57867,-2.80387 2.24403,-7.77407 6.27247,-11.04533 l 7.32415,-5.94796 -12.54446,1.64383 c -6.89956,0.90427 -18.18979,2.63771 -25.08943,3.85196 l -12.54445,2.20761 5.97431,-6.74429 c 3.28583,-3.70922 8.22535,-6.76814 10.97659,-6.79182 2.75125,-0.0265 7.08512,-1.36512 9.63091,-2.97503 3.81638,-2.41343 3.38852,-3.38611 -2.43755,-5.54125 l -7.06675,-2.61432 6.48022,-6.95513 c 4.35555,-4.67527 5.10345,-6.95566 2.28098,-6.95566 -2.30945,0 -5.54016,1.2876 -7.17887,2.86134 -1.63859,1.57363 -8.5892,3.33817 -15.44557,3.92017 -15.70385,1.33395 -18.53083,-6.4334 -6.66161,-18.30276 4.42943,-4.42929 7.33954,-9.20742 6.46834,-10.61794 -0.87181,-1.41066 0.91446,-4.01966 3.96927,-5.79811 10.30934,-6.00189 -2.29289,-3.54814 -14.95568,2.91198 -6.83077,3.48483 -12.41991,5.60139 -12.41991,4.70411 0,-0.89742 0.12123,-2.53223 0.2682,-3.63339 0.14734,-1.1008 -1.33567,-2.99244 -3.29489,-4.20336 -4.02275,-2.48621 12.46207,-22.02087 18.58284,-22.02087 1.99667,0 2.68886,-1.52363 1.53789,-3.38635 -1.15118,-1.86275 0.96416,-5.52834 4.70101,-8.14576 6.47813,-4.53765 6.53057,-4.95353 1.12396,-8.94675 -3.51684,-2.59739 -6.80169,-3.0771 -8.6496,-1.26296 -1.63859,1.6088 -5.32737,2.92489 -8.19691,2.92489 -2.86955,0 -8.5854,3.30491 -12.70156,7.34425 -6.67939,6.55471 -21.59661,13.10216 -21.59661,9.47899 0,-2.2093 6.70243,-9.90828 21.46122,-24.65274 l 13.62036,-13.60744 -16.7566,4.86172 c -9.21624,2.67406 -17.88562,6.7922 -19.26497,9.15085 -1.37948,2.35868 -3.84886,4.28863 -5.48804,4.28863 -4.83089,0 -3.40425,-9.44279 1.72392,-11.41068 2.58745,-0.9928 4.70411,-3.59987 4.70411,-5.79343 0,-2.19344 4.16517,-5.7137 9.25577,-7.82227 5.09061,-2.10868 11.38625,-7.08613 13.99087,-11.06134 4.35463,-6.64599 3.07402,-6.36117 -15.9153,3.53674 -19.8303,10.33625 -20.56331,10.48034 -18.44229,3.62459 1.21483,-3.92687 2.9289,-10.66764 3.80959,-14.97997 0.88046,-4.31219 3.58925,-12.28765 6.01927,-17.72295 6.52674,-14.59842 5.47279,-15.82299 -4.99039,-5.79862 -10.99694,10.53573 -12.11838,6.05063 -3.13625,-12.54445 8.43628,-17.46523 7.78064,-19.07531 -3.8008,-9.33018 -11.87538,9.99249 -15.25121,5.62478 -5.85339,-7.57318 8.84309,-12.4191 8.21273,-15.57504 -1.32188,-6.61768 -7.79293,7.32482 -7.84087,7.32814 -7.84087,0.66817 0,-3.68326 3.17544,-9.73444 7.05642,-13.44724 l 7.05642,-6.75049 -7.05642,2.13527 c -6.24795,1.89095 -7.05642,1.03377 -7.05642,-7.4843 0,-5.29093 -1.41083,-9.61956 -3.13572,-9.61957 z"
       id="path872"
       inkscape:connector-curvature="0"
       sodipodi:nodetypes="csssscsccccccscccccccccccccscccccscsscccccccccsssccccscssscccccccccccccccccccccsccccccscccscccscccccccccccccccccccsccccsssccsccccscsccccscsccscccsccccscccscc" />
  </g>
  <g
     style="display:none"
     inkscape:label="fir_top"
     id="g1017"
     inkscape:groupmode="layer">
    <path
       style="fill:none;stroke:#ff0000;stroke-width:0.08819444;stroke-miterlimit:4;stroke-dasharray:none;stroke-opacity:1"
       d="m 161.27232,156.96752 v 246.12141 h -3.19911 V 157.13288 c -0.9728,1.86928 -1.43729,5.49085 -1.43729,9.62939 0,6.03708 -1.41137,10.97659 -3.13625,10.97659 -1.72488,0 -3.13624,-1.41136 -3.13624,-3.13624 0,-1.72488 -1.57596,-3.13625 -3.50211,-3.13625 -1.95646,0 -2.77884,2.76559 -1.86139,6.27249 0.90215,3.44976 0.26032,6.27197 -1.42627,6.27197 -5.12307,0 -11.05428,7.62324 -9.51776,12.23284 1.0643,3.19279 -0.7297,3.9201 -6.80424,2.75849 -8.99101,-1.71872 -10.41944,0.4015 -4.3558,6.46524 3.10056,3.10116 3.03247,4.42619 -0.33538,6.50761 -2.94966,1.82326 -3.17906,3.26241 -0.75758,4.75888 6.8571,4.23728 3.30195,7.56117 -5.41466,5.06119 -6.97669,-2.00081 -8.88576,-1.52479 -8.88576,2.21692 0,2.62122 2.48951,5.41721 5.53248,6.21255 3.04295,0.7957 6.35689,3.59504 7.36441,6.22029 1.38422,3.60704 0.22712,4.35331 -4.73511,3.05562 -5.00169,-1.30777 -6.12257,-0.56018 -4.70411,3.13625 1.91003,4.978 -1.16351,4.82252 -15.479675,-0.78239 -6.032926,-2.36175 -6.062726,-2.21581 -0.77773,3.81889 3.022449,3.45106 4.44559,7.32464 3.162599,8.60775 -1.283123,1.28311 0.124815,3.70807 3.129006,5.38933 8.75074,4.89715 6.33362,7.86003 -5.304069,6.50143 -9.292095,-1.08482 -10.554864,-0.44779 -9.221141,4.6524 1.140518,4.36116 -0.239848,6.04306 -5.268929,6.42237 -3.747868,0.28236 -7.399332,1.09892 -8.115268,1.81488 -3.051135,3.05099 5.327631,17.48703 11.23859,19.36313 3.548615,1.12617 6.452319,4.06969 6.452319,6.54069 0,5.56082 -2.522722,5.51791 -12.54497,-0.21135 -11.825951,-6.76024 -15.45355,-5.55067 -4.704106,1.5684 7.872788,5.21398 8.384728,6.24067 3.136244,6.29986 -5.291275,0.058 -5.536319,0.58854 -1.567863,3.39513 3.539607,2.50365 3.733559,3.72049 0.783416,4.91755 -2.156101,0.87487 -3.920175,3.64011 -3.920175,6.14431 0,3.64368 -1.306823,3.85352 -6.541204,1.05214 -8.056393,-4.31162 -11.4134,-1.6706 -6.066295,4.77232 2.58886,3.11941 2.778212,4.78007 0.545187,4.78007 -1.951633,0 -2.538246,2.35836 -1.364777,5.48854 1.86463,4.9748 1.511271,5.04798 -3.77858,0.78343 -5.349237,-4.31231 -5.689121,-4.182 -4.079338,1.56787 0.96592,3.44974 2.861916,8.97361 4.21318,12.27521 1.919986,4.69114 1.483844,5.41615 -1.99626,3.31814 -3.801563,-2.29158 -3.823367,-1.90728 -0.149344,2.62207 2.367087,2.91838 3.072627,5.35803 1.567862,5.41724 -1.504883,0.061 0.792398,2.12788 5.104599,4.59301 4.312435,2.46499 6.680694,4.53369 5.263761,4.59298 -5.124384,0.22106 6.976213,9.51984 12.388389,9.51984 4.154435,0 4.654788,0.90043 1.984375,3.57084 -2.670408,2.67042 -9.263673,1.46066 -26.146207,-4.79713 -21.681188,-8.03648 -32.276445,-9.24002 -19.056201,-2.16472 4.680005,2.50447 5.935583,5.5839 4.809527,11.79463 -0.838258,4.62298 -2.148621,9.41604 -2.911967,10.65104 -0.763231,1.23499 0.712896,6.27321 3.28042,11.19621 5.734939,10.99704 6.100048,23.0637 0.697114,23.0637 -2.703716,0 -3.781269,4.08543 -3.308324,12.54498 0.583414,10.43649 -0.289901,12.54445 -5.196067,12.54445 -3.892952,0 -7.246427,3.7306 -9.86658,10.97659 -2.183007,6.03707 -5.531777,10.97658 -7.441923,10.97658 -3.844115,0 -3.722986,22.1561 0.155029,28.43083 1.720613,2.78326 0.08882,3.40302 -5.9329707,2.25205 -9.00654688,-1.72167 -10.4876735,0.37936 -4.4932658,6.37379 2.0974272,2.0973 3.8609182,8.31376 3.9201741,13.81413 0.1011081,9.46267 1.2033916,10.3836 20.4917724,17.11577 11.211719,3.91334 23.604889,7.15049 27.539921,7.19799 3.935148,0.0457 7.831031,1.84726 8.658386,4.00338 1.907776,4.97454 52.342149,4.64629 65.146929,-0.42426 16.22918,-6.4267 20.96513,-4.73668 20.96513,7.48067 l 0.002,5.30251 -4.23488,-0.54001 -72.717008,9.94463 -72.71700723,9.9444 H 150.03678 299.37958 l -76.6258,-10.11649 -41.02747,-5.23224 V 574.649 c 0,-5.9354 1.09421,-11.46818 2.43138,-12.29434 1.33716,-0.82654 11.56877,-1.84486 22.73711,-2.26447 11.16822,-0.41902 23.99005,-2.01229 28.49284,-3.54086 4.50281,-1.52847 11.5591,-3.2402 15.68069,-3.80442 15.15872,-2.07383 21.6888,-5.89915 28.2825,-16.568 3.71065,-6.004 10.227,-14.39674 14.48078,-18.65053 4.25365,-4.25363 7.19381,-8.27447 6.53241,-8.93588 -0.66093,-0.66093 -7.3473,0.17939 -14.85903,1.86706 -7.51163,1.68812 -14.13867,2.58625 -14.72779,1.99832 -0.58852,-0.58862 3.12586,-5.66401 8.25428,-11.2789 5.12842,-5.61485 9.3245,-10.89951 9.3245,-11.74345 0,-0.84394 -5.29222,-3.81534 -11.76054,-6.60323 l -11.76052,-5.06841 14.89678,-6.32831 c 8.19317,-3.48056 14.89676,-7.62936 14.89676,-9.21959 0,-1.58649 -1.76459,-2.27785 -3.9207,-1.52754 -2.15609,0.7503 -6.31767,-1.14324 -9.24801,-4.20802 -5.02896,-5.25973 -4.94083,-5.69645 1.56837,-7.78298 6.32452,-2.02737 6.00085,-2.51357 -3.90724,-5.86994 -6.80389,-2.30497 -9.41641,-4.51681 -7.05643,-5.97535 5.54471,-3.42688 4.54461,-8.1993 -1.74149,-8.31784 -4.89847,-0.089 -4.81425,-0.61402 0.7834,-4.87928 3.44991,-2.62856 5.7988,-7.07316 5.22037,-9.8769 -0.57867,-2.80387 2.24403,-7.77407 6.27247,-11.04532 l 7.32412,-5.94797 -12.54445,1.64383 c -6.89954,0.90427 -18.18978,2.63771 -25.08942,3.85197 l -12.54446,2.2076 5.97432,-6.74428 c 3.28583,-3.70922 8.22535,-6.76815 10.97659,-6.79183 2.75125,-0.0265 7.08511,-1.36512 9.63092,-2.97503 3.81638,-2.41342 3.38852,-3.38611 -2.43756,-5.54125 l -7.06676,-2.61432 6.48023,-6.95513 c 4.35556,-4.67526 5.10346,-6.95565 2.28099,-6.95565 -2.30946,0 -5.54017,1.28759 -7.17889,2.86133 -1.63858,1.57364 -8.58919,3.33817 -15.44556,3.92018 -15.70385,1.33394 -18.53083,-6.4334 -6.66161,-18.30277 4.42943,-4.42928 7.33954,-9.20742 6.46834,-10.61794 -0.87181,-1.41065 0.91446,-4.01965 3.96927,-5.7981 10.30933,-6.00189 -2.29289,-3.54815 -14.95568,2.91197 -6.83077,3.48483 -12.41992,5.60139 -12.41992,4.70411 0,-0.89741 0.12123,-2.53222 0.26821,-3.63339 0.14734,-1.1008 -1.33567,-2.99244 -3.29489,-4.20336 -4.02275,-2.48621 12.46207,-22.02087 18.58284,-22.02087 1.99667,0 2.68885,-1.52363 1.53789,-3.38635 -1.15119,-1.86275 0.96416,-5.52834 4.70101,-8.14575 6.47813,-4.53766 6.53057,-4.95353 1.12396,-8.94676 -3.51684,-2.59738 -6.80169,-3.0771 -8.6496,-1.26296 -1.63859,1.6088 -5.32738,2.92489 -8.19692,2.92489 -2.86955,0 -8.58539,3.30491 -12.70155,7.34425 -6.67939,6.55471 -21.59661,13.10217 -21.59661,9.47899 0,-2.2093 6.70243,-9.90827 21.46122,-24.65274 l 13.62036,-13.60744 -16.7566,4.86172 c -9.21624,2.67407 -17.88563,6.7922 -19.26498,9.15085 -1.37948,2.35868 -3.84885,4.28864 -5.48803,4.28864 -4.83089,0 -3.40425,-9.4428 1.72392,-11.41069 2.58745,-0.9928 4.70411,-3.59987 4.70411,-5.79342 0,-2.19345 4.16516,-5.71371 9.25576,-7.82228 5.09061,-2.10867 11.38626,-7.08613 13.99088,-11.06134 4.35463,-6.64599 3.07402,-6.36117 -15.91531,3.53674 -19.8303,10.33625 -20.5633,10.48034 -18.44228,3.62459 1.21483,-3.92686 2.9289,-10.66764 3.80959,-14.97997 0.88045,-4.31219 3.58925,-12.28765 6.01927,-17.72295 6.52673,-14.59842 5.47279,-15.82299 -4.9904,-5.79861 -10.99694,10.53573 -12.11837,6.05062 -3.13624,-12.54446 8.43628,-17.46523 7.78064,-19.07531 -3.8008,-9.33017 -11.87538,9.99248 -15.25121,5.62477 -5.85339,-7.57319 8.84309,-12.4191 8.21273,-15.57504 -1.32188,-6.61768 -7.79293,7.32482 -7.84087,7.32815 -7.84087,0.66818 0,-3.68326 3.17544,-9.73444 7.05642,-13.44724 l 7.05641,-6.7505 -7.05641,2.13527 c -6.24795,1.89095 -7.05642,1.03378 -7.05642,-7.48429 0,-3.62622 -0.66324,-6.79928 -1.63556,-8.43773 z"
       id="path1011"
       inkscape:connector-curvature="0"
       sodipodi:nodetypes="ccccsssscsccccccscccccccccccccscccccscsscccccccccsssccccscssscccccccccccccccccsccccccscccscccscccccccccccccccccccsccccsssccsccccscsccccscsccscccsccccscccscc" />
  </g>
  <g
     inkscape:groupmode="layer"
     id="layer3"
     inkscape:label="secoia_bottom"
     style="display:none">
    <path
       style="fill:none;stroke:#ff0000;stroke-width:0.33333334;stroke-miterlimit:4;stroke-dasharray:none;stroke-opacity:1"
       d="m 549.31055,-1.3027344 c -17.66985,0.044517 -31.77014,5.8145186 -39.23243,17.8886724 -6.20427,10.039666 -30.746,25.655719 -54.5371,34.701171 -32.79175,12.467362 -41.44044,25.948109 -35.74805,55.726561 4.13027,21.60446 -3.25588,49.33506 -16.41211,61.625 -13.15423,12.28999 -20.01574,32.5176 -15.24609,44.94922 4.77029,12.43167 -2.44426,26.87052 -16.03125,32.08203 -13.58771,5.21347 -24.70313,27.5181 -24.70313,49.56446 0,22.04563 -7.9643,48.04634 -17.69727,57.77929 -12.13336,12.13336 -9.57272,33.35414 8.14454,67.50391 16.31882,31.45504 19.82364,55.82671 9.50976,66.14062 -10.14826,10.14751 -10.24611,23.66788 -0.25976,35.70118 10.28141,12.38807 6.29214,37.62689 -11.06836,70.03906 -17.26568,32.23608 -26.18899,88.209 -24.52539,153.83203 3.24718,128.13532 4.44813,105.89489 -16.49219,305.34963 -22.00339,209.5802 -4.08155,288.7373 83.54687,369.0019 34.52674,31.6245 73.26172,52.9532 86.76563,47.7676 20.69665,-7.9433 22.92657,34.3168 14.69336,279 -10.57131,314.189 -25.29203,389.2758 -91.81641,468.3418 l -112.1582,15.3379 -274.8359388,37.5859 526.9531288,-0.6074 V 1020.0469 h 12.08789 v 1247.9472 l 25.40429,-0.029 127.12696,-0.1464 h 71.2539 l -0.0742,-0.082 366.1387,-0.4218 -289.6094,-36.9356 -124.63867,-15.8965 -13.06641,-14.4629 c -33.68851,-37.2883 -68.74133,-97.2495 -77.89648,-133.2461 -25.70733,-101.0757 -40.94382,-352.8385 -27.74805,-458.455 10.79471,-86.3971 16.02182,-95.5475 57.29883,-100.3301 36.43714,-4.22 45.76433,-14.7241 47.16211,-53.1074 0.95921,-26.315 -4.84387,-51.9149 -12.89453,-56.8926 -8.05047,-4.9757 -14.63867,-17.2742 -14.63867,-27.3301 0,-11.5999 9.35023,-10.5254 25.57226,2.9375 39.17099,32.5095 74.46617,8.5115 87.1836,-59.2793 6.32156,-33.6982 18.38177,-65.5254 26.80078,-70.7305 19.80449,-12.2392 0.38164,-93.8207 -30.94532,-129.9804 -15.41809,-17.7978 -20.18245,-44.5303 -13.01953,-73.0703 7.09531,-28.269 4.20873,-45.00395 -7.76172,-45.00395 -29.18116,0 -23.12531,-102.67724 6.73243,-114.13477 29.06562,-11.15346 34.84772,-67.36197 8.59765,-83.58593 -19.6947,-12.17239 -23.3325,-99.88373 -4.90625,-118.31055 6.75753,-6.75681 13.09873,-48.6659 14.08594,-93.12891 1.30802,-58.72527 -7.76407,-91.62616 -33.16016,-120.25586 -29.77065,-33.56167 -31.7215,-44.59904 -13.14062,-74.35156 17.43836,-27.92714 17.60697,-54.52467 0.83789,-132.51758 -11.53886,-53.66836 -28.1042,-106.91015 -36.8125,-118.3164 -8.70758,-11.40558 -11.44944,-27.8223 -6.10156,-36.48047 C 703.38003,95.791611 683.21304,68.375026 653.21289,43.521484 618.12765,14.455604 578.7603,-1.37693 549.31055,-1.3027344 Z"
       transform="scale(0.26458333)"
       id="path886"
       inkscape:connector-curvature="0"
       sodipodi:nodetypes="sccccccsccccccscccccccccccccccccccccccscccccscsccccccccs" />
  </g>
  <g
     style="display:none"
     inkscape:label="secoia_top"
     id="g1033"
     inkscape:groupmode="layer">
    <path
       style="fill:none;stroke:#ff0000;stroke-width:0.33333334;stroke-miterlimit:4;stroke-dasharray:none;stroke-opacity:1"
       d="m 549.31055,-1.3027344 c -3.14555,0.00792 -6.17223,0.2060042 -9.07422,0.58007815 V 1020.0273 H 528.14648 V 1.9335938 c -8.0674,2.8867737 -13.78871,7.7277824 -18.06836,14.6523442 -6.20427,10.039666 -30.746,25.655719 -54.5371,34.701171 -32.79175,12.467362 -41.44044,25.948109 -35.74805,55.726561 4.13027,21.60446 -3.25588,49.33506 -16.41211,61.625 -13.15423,12.28999 -20.01574,32.5176 -15.24609,44.94922 4.77029,12.43167 -2.44426,26.87052 -16.03125,32.08203 -13.58771,5.21347 -24.70313,27.5181 -24.70313,49.56446 0,22.04563 -7.9643,48.04634 -17.69727,57.77929 -12.13336,12.13336 -9.57272,33.35414 8.14454,67.50391 16.31882,31.45504 19.82364,55.82671 9.50976,66.14062 -10.14826,10.14751 -10.24611,23.66788 -0.25976,35.70118 10.28141,12.38807 6.29214,37.62689 -11.06836,70.03906 -17.26568,32.23608 -26.18899,88.209 -24.52539,153.83203 3.24718,128.13532 4.44813,105.89489 -16.49219,305.34963 -22.00339,209.5802 -4.08155,288.7373 83.54687,369.0019 34.52674,31.6245 73.26172,52.9532 86.76563,47.7676 20.69665,-7.9433 22.92657,34.3168 14.69336,279 -10.57131,314.189 -25.29203,389.2758 -91.81641,468.3418 l -112.1582,15.3379 -274.8359388,37.5859 564.4453088,-0.6504 127.12696,-0.1464 h 71.2539 l -0.0742,-0.082 366.1387,-0.4218 -289.6094,-36.9356 -124.63867,-15.8965 -13.06641,-14.4629 c -33.68851,-37.2883 -68.74133,-97.2495 -77.89648,-133.2461 -25.70733,-101.0757 -40.94382,-352.8385 -27.74805,-458.455 10.79471,-86.3971 16.02182,-95.5475 57.29883,-100.3301 36.43714,-4.22 45.76433,-14.7241 47.16211,-53.1074 0.95921,-26.315 -4.84387,-51.9149 -12.89453,-56.8926 -8.05047,-4.9757 -14.63867,-17.2742 -14.63867,-27.3301 0,-11.5999 9.35023,-10.5254 25.57226,2.9375 39.17099,32.5095 74.46617,8.5115 87.1836,-59.2793 6.32156,-33.6982 18.38177,-65.5254 26.80078,-70.7305 19.80449,-12.2392 0.38164,-93.8207 -30.94532,-129.9804 -15.41809,-17.7978 -20.18245,-44.5303 -13.01953,-73.0703 7.09531,-28.269 4.20873,-45.00395 -7.76172,-45.00395 -29.18116,0 -23.12531,-102.67724 6.73243,-114.13477 29.06562,-11.15346 34.84772,-67.36197 8.59765,-83.58593 -19.6947,-12.17239 -23.3325,-99.88373 -4.90625,-118.31055 6.75753,-6.75681 13.09873,-48.6659 14.08594,-93.12891 1.30802,-58.72527 -7.76407,-91.62616 -33.16016,-120.25586 -29.77065,-33.56167 -31.7215,-44.59904 -13.14062,-74.35156 17.43836,-27.92714 17.60697,-54.52467 0.83789,-132.51758 -11.53886,-53.66836 -28.1042,-106.91015 -36.8125,-118.3164 -8.70758,-11.40558 -11.44944,-27.8223 -6.10156,-36.48047 C 703.38003,95.791611 683.21304,68.375026 653.21289,43.521484 618.12765,14.455604 578.7603,-1.37693 549.31055,-1.3027344 Z"
       transform="scale(0.26458333)"
       id="path1027"
       inkscape:connector-curvature="0"
       sodipodi:nodetypes="cccccccccccsccccccscccccccccccccccccccscccccscsccccccccc" />
  </g>
  <g
     inkscape:groupmode="layer"
     id="layer4"
     inkscape:label="brazil_nut_bottom"
     style="display:inline">
    <path
       style="fill:none;stroke:#ff0000;stroke-width:0.08819444;stroke-miterlimit:4;stroke-dasharray:none;stroke-opacity:1"
       d="m 92.995873,169.99841 c -2.565897,0.0343 -4.817964,1.39095 -6.079215,4.10724 -1.438372,3.09801 -2.505863,3.19915 -3.85713,0.36432 -1.027427,-2.15679 -4.775792,-3.15536 -8.329207,-2.22157 -7.942104,2.08741 -12.506325,19.85157 -6.857979,26.69191 4.933923,5.97505 1.677606,12.0034 -6.483842,12.0034 -9.179192,0 -19.615944,12.82488 -14.566553,17.89968 7.598293,7.63673 3.994877,9.99907 -4.730459,3.1011 -10.845541,-8.57428 -15.929914,-6.81464 -21.267436,7.36131 -3.485368,9.25554 -3.324482,11.66172 0.991154,14.84974 2.832803,2.09244 5.150074,4.5656 5.150074,5.49682 0,3.39189 -16.821885,19.82619 -20.2938526,19.82619 -6.03957121,0 -3.9553398,9.98228 2.9951658,14.34486 6.3971698,4.01484 6.3750338,4.21886 -0.8516276,7.82535 -6.2662414,3.12703 -7.580039,7.0993 -8.44857971,25.54263 -1.16556944,24.75863 2.64131641,31.92262 12.29692411,23.1402 7.841726,-7.1332 10.893391,-7.27258 10.893391,-0.49766 0,2.88626 2.684926,6.24308 5.96656,7.46054 3.281765,1.21695 6.962873,3.70631 8.179348,5.53196 1.234511,1.85205 5.003482,2.12561 8.524025,0.61907 3.470934,-1.4854 12.071048,-2.95047 19.111497,-3.25612 12.963787,-0.56261 21.273286,-5.70505 21.324795,-13.20385 0.04175,-5.61435 21.523114,-5.47928 33.362824,0.20982 13.24227,6.36307 22.8379,23.61038 22.8508,41.08275 0.01,11.43955 -1.26687,14.64924 -5.95364,14.96137 -5.68249,0.37856 -5.68249,0.4717 0,1.96421 5.46794,1.43608 5.96656,8.26119 5.96656,81.62189 0,44.02828 -1.49664,84.00728 -3.32538,88.8442 -0.19996,0.52853 -0.38579,1.02344 -0.55707,1.49035 l -65.723121,8.98808 -72.71700855,9.9446 146.65255955,0.0875 0.006,-219.02664 h 3.19912 V 596.1767 l 148.82812,-0.17106 -76.62581,-10.02956 -56.64564,-7.22436 c -0.19094,-1.03847 -0.49309,-2.2655 -0.85834,-3.71605 -9.47325,-37.62145 -12.46139,-139.49492 -4.33307,-147.72484 3.41668,-3.45935 3.10823,-3.87371 -1.55495,-2.08978 -5.06884,1.9391 -5.42563,0.85508 -2.77606,-8.43 2.07573,-7.27601 1.90593,-9.95084 -0.53588,-8.43409 -4.93406,3.06485 -0.007,-40.17574 5.19503,-45.59205 2.16323,-2.25227 8.2785,-4.87148 13.58935,-5.82083 5.31085,-0.94909 17.96374,-8.85918 28.11767,-17.57776 16.83137,-14.45233 18.93783,-15.37332 23.85281,-10.43347 7.25308,7.28964 18.64645,13.21909 20.95065,10.90321 1.02807,-1.03338 5.44825,0.95073 9.82266,4.40905 10.66137,8.42859 24.60898,5.55958 29.69689,-6.10868 2.15138,-4.93376 5.86203,-10.20376 8.2455,-11.7109 2.55175,-1.61351 4.33359,-9.69558 4.33359,-19.65513 0,-15.96882 -0.77132,-17.42752 -13.79038,-26.08678 -8.1612,-5.42811 -13.07615,-11.04331 -12.0401,-13.75577 0.9625,-2.521 0.4073,-4.58369 -1.23351,-4.58369 -1.64042,0 -2.15337,-3.19132 -1.13792,-7.09207 1.29738,-4.98658 -1.67354,-10.83751 -10.0061,-19.70423 -6.51844,-6.93632 -14.32243,-18.00822 -17.3421,-24.6047 -5.81045,-12.69324 -25.96677,-30.84101 -34.25475,-30.84101 -2.71244,0 -5.81427,2.31319 -6.89415,5.14026 -2.96604,7.76843 -11.57597,6.17046 -17.74569,-3.29334 -6.70515,-10.28708 -15.36021,-13.37069 -29.03595,-10.35182 -6.56882,1.45004 -11.49736,5.30325 -13.4767,10.53579 -2.89233,7.64593 -13.51804,11.86914 -13.51804,5.37279 0,-3.804 -16.78356,-11.39899 -20.32641,-9.1984 -1.52227,0.94559 -4.66364,-0.57693 -6.98097,-3.38326 -2.729176,-3.3049 -6.04027,-4.96465 -8.948287,-4.92579 z m 72.814677,153.22526 3.42253,9.86814 c 2.9654,8.54954 2.34513,10.68467 -4.64158,15.98144 -9.28229,7.03707 -9.67035,5.58713 -3.37137,-12.59766 z m -42.95914,1.2387 c 0.5434,-0.0161 1.14825,0.0388 1.81385,0.1695 3.77867,0.74186 5.74878,4.78673 5.96656,12.24523 0.17782,6.1254 0.0272,11.13692 -0.33486,11.13679 -0.3625,-1.3e-4 -3.0478,-3.42718 -5.96708,-7.61606 -6.26959,-8.99702 -6.73128,-15.78038 -1.47847,-15.93546 z m 23.76858,8.16126 c 1.99732,0.083 2.07413,2.69783 0.77825,9.54514 -2.45266,12.95879 -2.68527,13.38879 -5.64514,10.41384 -4.1909,-4.21198 -2.32795,-17.52169 2.72542,-19.47064 0.87239,-0.33649 1.58222,-0.51159 2.14147,-0.48834 z"
       id="path899"
       inkscape:connector-curvature="0"
       sodipodi:nodetypes="cccccsccccssccccscccccccccsccccccccccccccccccccccccsccscccsccscsccsccccccccscccccccc" />
  </g>
  <g
     style="display:none"
     inkscape:label="brazil_nut_top"
     id="g1049"
     inkscape:groupmode="layer">
    <path
       style="fill:none;stroke:#ff0000;stroke-width:0.08819444;stroke-miterlimit:4;stroke-dasharray:none;stroke-opacity:1"
       d="m 92.995873,169.99841 c -2.565897,0.0343 -4.817964,1.39095 -6.079215,4.10724 -1.438372,3.09801 -2.505863,3.19915 -3.85713,0.36432 -1.027427,-2.15679 -4.775792,-3.15536 -8.329207,-2.22157 -7.942104,2.08741 -12.506325,19.85157 -6.857979,26.69191 4.933923,5.97505 1.677606,12.0034 -6.483842,12.0034 -9.179192,0 -19.615944,12.82488 -14.566553,17.89968 7.598293,7.63673 3.994877,9.99907 -4.730459,3.1011 -10.845541,-8.57428 -15.929914,-6.81464 -21.267436,7.36131 -3.485368,9.25554 -3.324482,11.66172 0.991154,14.84974 2.832803,2.09244 5.150074,4.5656 5.150074,5.49682 0,3.39189 -16.821885,19.82619 -20.2938526,19.82619 -6.03957121,0 -3.9553398,9.98228 2.9951658,14.34486 6.3971698,4.01484 6.3750338,4.21886 -0.8516276,7.82535 -6.2662414,3.12703 -7.580039,7.0993 -8.44857971,25.54263 -1.16556944,24.75863 2.64131641,31.92262 12.29692411,23.1402 7.841726,-7.1332 10.893391,-7.27258 10.893391,-0.49766 0,2.88626 2.684926,6.24308 5.96656,7.46054 3.281765,1.21695 6.962873,3.70631 8.179348,5.53196 1.234511,1.85205 5.003482,2.12561 8.524025,0.61907 3.470934,-1.4854 12.071048,-2.95047 19.111497,-3.25612 12.963787,-0.56261 21.273286,-5.70505 21.324795,-13.20385 0.04175,-5.61435 21.523114,-5.47928 33.362824,0.20982 13.24227,6.36307 22.8379,23.61038 22.8508,41.08275 0.01,11.43955 -1.26687,14.64924 -5.95364,14.96137 -5.68249,0.37856 -5.68249,0.4717 0,1.96421 5.46794,1.43608 5.96656,8.26119 5.96656,81.62189 0,44.02828 -1.49664,84.00728 -3.32538,88.8442 -0.19996,0.52853 -0.38579,1.02344 -0.55707,1.49035 l -65.723121,8.98808 -72.71700855,9.9448 149.34281955,0.0858 149.34282,-0.17156 -76.62581,-10.03111 -56.64564,-7.22436 c -0.19094,-1.03847 -0.49309,-2.2655 -0.85834,-3.71605 -9.47325,-37.62145 -12.46139,-139.49492 -4.33307,-147.72484 3.41668,-3.45935 3.10823,-3.87371 -1.55495,-2.08978 -5.06884,1.9391 -5.42563,0.85508 -2.77606,-8.43 2.07573,-7.27601 1.90593,-9.95084 -0.53588,-8.43409 -4.93406,3.06485 -0.007,-40.17574 5.19503,-45.59205 2.16323,-2.25227 8.2785,-4.87148 13.58935,-5.82083 5.31085,-0.94909 17.96374,-8.85918 28.11767,-17.57776 16.83137,-14.45233 18.93783,-15.37332 23.85281,-10.43347 7.25308,7.28964 18.64645,13.21909 20.95065,10.90321 1.02807,-1.03338 5.44825,0.95073 9.82266,4.40905 10.66137,8.42859 24.60898,5.55958 29.69689,-6.10868 2.15138,-4.93376 5.86203,-10.20376 8.2455,-11.7109 2.55175,-1.61351 4.33359,-9.69558 4.33359,-19.65513 0,-15.96882 -0.77132,-17.42752 -13.79038,-26.08678 -8.1612,-5.42811 -13.07615,-11.04331 -12.0401,-13.75577 0.9625,-2.521 0.4073,-4.58369 -1.23351,-4.58369 -1.64042,0 -2.15337,-3.19132 -1.13792,-7.09207 1.29738,-4.98658 -1.67354,-10.83751 -10.0061,-19.70423 -6.51844,-6.93632 -14.32243,-18.00822 -17.3421,-24.6047 -5.81045,-12.69324 -25.96677,-30.84101 -34.25475,-30.84101 -2.71244,0 -5.81427,2.31319 -6.89415,5.14026 -2.96604,7.76843 -11.57597,6.17046 -17.74569,-3.29334 -6.70515,-10.28708 -15.36021,-13.37069 -29.03595,-10.35182 -2.12952,0.47008 -4.08534,1.19442 -5.82549,2.13475 v 203.42169 h -3.19825 v -35.10846 c 0,-0.0432 -0.18827,0.0993 -0.19636,0.14211 -2.45266,12.95879 -2.3132,13.37019 -5.27307,10.39524 -4.1909,-4.21198 -2.32795,-17.52169 2.72542,-19.47064 0.87239,-0.33649 1.58222,-0.51159 2.14147,-0.48834 0.31355,0.013 0.57997,0.0886 0.80098,0.23305 l -0.19843,-157.11496 c -2.11793,1.74962 -3.51656,3.91591 -4.45296,6.39135 -2.89233,7.64593 -13.51804,11.86914 -13.51804,5.37279 0,-3.804 -16.78356,-11.39899 -20.32641,-9.1984 -1.52227,0.94559 -4.66364,-0.57693 -6.98097,-3.38326 -2.729176,-3.3049 -6.040269,-4.96465 -8.948286,-4.92579 z m 72.814677,153.22526 3.42253,9.86814 c 2.9654,8.54954 2.34513,10.68467 -4.64158,15.98144 -9.28229,7.03707 -9.67035,5.58713 -3.37137,-12.59766 z m -42.95914,1.2387 c 0.5434,-0.0161 1.14825,0.0388 1.81385,0.1695 3.77867,0.74186 5.74878,4.78673 5.96656,12.24523 0.17782,6.1254 0.0272,11.13692 -0.33486,11.13679 -0.3625,-1.3e-4 -3.0478,-3.42718 -5.96708,-7.61606 -6.26959,-8.99702 -6.73128,-15.78038 -1.47847,-15.93546 z"
       id="path1043"
       inkscape:connector-curvature="0"
       sodipodi:nodetypes="cccccsccccssccccscccccccccscccccccccccccccccccccsccscccsccscccscccccccsccccccccccccscc" />
  </g>
  <g
     inkscape:groupmode="layer"
     id="layer5"
     inkscape:label="pine_bottom"
     style="display:none">
    <path
       style="fill:none;stroke:#ff0000;stroke-width:0.33333334;stroke-miterlimit:4;stroke-dasharray:none;stroke-opacity:1"
       d="m 666.74414,99.625 c -5.77015,0.05297 -11.51075,0.41444 -17.17773,1.10938 -32.78204,4.01977 -67.17999,17.66929 -76.43946,30.33203 -12.37013,16.91774 -21.27587,18.58352 -33.58007,6.27929 -21.41477,-21.41478 -93.73868,23.15737 -104.5293,64.41992 -4.34419,16.61264 -20.86016,28.69869 -39.53125,28.86915 -17.63881,0.18408 -48.9824,13.56211 -69.65235,29.73046 -20.66989,16.16832 -46.03809,29.56024 -56.37304,29.73047 -16.74387,0.29771 -27.07678,43.62472 -19.59571,82.18164 7.14014,36.79736 -36.05645,83.51368 -77.2207,83.51368 -66.50167,0 -80.451608,47.55501 -53.41992,182.10546 12.18888,60.67971 17.29693,127.39752 11.34766,148.26172 -5.94871,20.86481 -6.69998,68.37557 -1.66602,105.58203 9.02193,66.69551 9.96442,67.63975 65.45898,66.92383 50.7873,-0.65393 56.30469,3.09992 56.30469,38.33203 0,21.48241 8.45412,48.09821 18.78906,59.14451 15.4678,16.5319 12.14538,18.2534 -18.78906,9.7383 -111.0613,-30.5714 -147.10839,-28.3975 -186.767576,11.2617 -46.189703,46.1897 -49.548209,98.1747 -9.337891,144.5371 20.840368,24.033 26.852148,46.5521 20.669922,77.4649 -5.388495,26.9431 -2.408187,43.582 7.808594,43.582 9.089537,0 27.020731,20.2932 39.847651,45.0977 12.82638,24.8039 33.61823,45.0976 46.20313,45.0976 12.58433,0 39.84403,18.3056 60.57813,40.6778 31.89631,34.4166 42.0893,37.9334 66.23242,22.8554 19.9563,-12.4622 31.52065,-12.9864 38.46875,-1.7441 5.90099,9.5497 30.59995,12.1976 60.82812,6.5273 61.65411,-11.5661 64.96719,-1.7478 9.55274,28.3145 -29.47427,15.9904 -33.78763,22.5747 -15.03125,23.0293 14.46893,0.3312 26.30664,8.1961 26.30664,17.4765 0,11.6577 6.96909,11.0875 22.54882,-1.8418 19.54322,-16.2206 22.54883,-8.4527 22.54883,58.2911 0,42.3528 -5.07183,76.8872 -11.27343,76.7734 -22.28005,-0.4551 -56.3865,-29.2164 -57.06836,-48.125 -1.24366,-34.5196 -37.39894,-86.9395 -59.96485,-86.9395 -12.11106,0 -22.01953,-5.1101 -22.01953,-11.3554 0,-12.9191 -101.14412,-51.1362 -135.29492,-51.1211 -84.990963,0.037 -158.049625,32.8911 -169.365235,76.1621 -9.3060087,35.5866 -0.5039767,46.4453 37.648437,46.4453 31.178166,0 71.585938,33.3352 71.585938,59.0566 0,8.8589 6.76328,16.1075 15.03125,16.1075 8.26796,0 15.0332,10.3584 15.0332,23.0195 0,36.6183 35.65647,40.8104 118.01172,13.873 l 76.58008,-25.0468 58.49219,46.3261 58.49023,46.3262 10.70508,187.8809 c 5.8862,103.3348 6.41409,194.8221 1.16992,203.3066 h -0.002 c -0.90032,1.4569 -0.92833,2.8161 -0.11328,4.0762 l -190.1543,26.0039 -274.8359369,37.5859 549.8320269,-0.6347 V 1053.9883 h 12.08789 v 1212.2246 h 2.5254 l 564.44723,-0.6504 -289.60934,-36.9355 -169.23829,-21.584 -7.33789,-36.6855 c -4.86973,-24.3471 -13.45933,-141.754 -19.08984,-260.9043 l -10.23633,-216.6367 43.51758,-8.4375 c 23.93514,-4.6419 61.49822,-4.8978 83.47266,-0.5684 30.16913,5.9436 44.10497,0.1149 56.90234,-23.7969 9.7242,-18.17 31.74713,-31.6679 51.66992,-31.6679 19.09777,-10e-5 46.09077,-12.5595 59.98242,-27.9102 22.1932,-24.5226 22.55539,-30.1513 2.98829,-46.3906 -12.24855,-10.1656 -29.97603,-13.7212 -39.39454,-7.9004 -9.4185,5.8209 -33.8091,1.6556 -54.20117,-9.2578 -28.49699,-15.2536 -43.50879,-15.827 -64.87695,-2.4825 -21.98975,13.7361 -29.53968,12.8311 -36.12305,-4.3242 -11.75138,-30.6236 59.17514,-45.6429 103.50586,-21.9179 19.47557,10.4442 45.51766,15.0685 57.87305,10.33 12.35539,-4.7413 30.55252,1.1241 40.4375,13.0352 24.1079,29.0493 54.71326,27.344 72.26948,-4.0274 7.9061,-14.1268 32.8308,-25.9657 55.3887,-26.3066 59.374,-0.9006 81.2579,-42.6592 43.9571,-83.8769 -25.7778,-28.4839 -38.4158,-31.0246 -104.5978,-21.0293 -41.40211,6.2526 -94.42406,11.9842 -117.82803,12.7285 -23.40336,0.7477 -51.20873,13.197 -61.78906,27.666 -10.57988,14.4689 -35.40154,26.5556 -55.16016,26.8398 -19.75854,0.2932 -52.83592,10.1995 -73.50586,22.0157 -48.19476,27.5493 -60.13281,27.6704 -60.13281,0.6035 0,-12.5792 25.66666,-29.6365 60.13281,-39.9629 33.07185,-9.9088 60.13086,-24.4318 60.13086,-32.2754 0,-7.8463 -11.10459,-10.007 -24.67578,-4.7969 -20.56085,7.8902 -21.5297,5.6803 -5.8125,-13.2578 10.37416,-12.5002 24.90566,-18.9938 32.29297,-14.4258 7.38784,4.5658 34.79803,-6.9128 60.91211,-25.5078 32.22871,-22.9488 65.48585,-32.7462 103.53711,-30.5019 69.31695,4.0902 108.53994,-28.8332 90.96084,-76.3536 -6.6475,-17.9699 -24.03579,-39.7618 -38.64053,-48.4257 -14.60421,-8.664 -45.56119,-34.3569 -68.79297,-57.0938 -53.39807,-52.2606 -121.42322,-55.2717 -159.96484,-7.082 -15.06894,18.8409 -39.23809,31.8776 -53.70703,28.9629 -18.91087,-3.8056 -26.497,4.5247 -26.89453,29.6308 -0.50283,29.8504 -3.76667,27.6068 -22.45703,-15.4375 -24.05685,-55.4019 -16.1183,-115.8043 16.88476,-128.4687 28.5055,-10.9384 26.75285,-54.58267 -3.95312,-98.4219 -14.42865,-20.59888 -16.91687,-30.81496 -5.83594,-23.96679 11.0719,6.84298 24.10447,4.18156 30.54297,-6.23633 7.0981,-11.48497 14.4275,-2.19011 19.91601,25.25976 10.68662,53.43156 104.14886,111.97226 132.88672,83.23436 12.51107,-12.5104 25.99162,-13.1146 46.59961,-2.0859 23.03233,12.3269 41.46245,6.8804 89.60547,-26.4824 68.75275,-47.64598 66.64425,-43.36916 78.59175,-159.39457 8.4708,-82.26886 6.5335,-88.89434 -41.7578,-142.81055 -45.03002,-50.27595 -135.44671,-213.92435 -124.33395,-225.03711 6.17654,-6.17601 71.9249,-7.16389 106.52734,-1.60156 50.44721,8.10947 44.26601,-44.84158 -13.45703,-115.28516 -29.74979,-36.30531 -69.20409,-70.65214 -87.67578,-76.32812 -45.97262,-14.12465 -86.19922,-59.10123 -86.19922,-96.37695 0,-44.27714 -72.05089,-86.609413 -140.13867,-85.98438 z"
       transform="scale(0.26458333)"
       id="path915"
       inkscape:connector-curvature="0"
       sodipodi:nodetypes="cccsccsccsccccsccsccscsccccccscsccssccsssscccccccccccccccccccccccccccccccccsccccccccscscccccccsccccccccccccccccccscc" />
  </g>
  <g
     style="display:none"
     inkscape:label="pine_top"
     id="g1065"
     inkscape:groupmode="layer">
    <path
       style="fill:none;stroke:#ff0000;stroke-width:0.33333334;stroke-miterlimit:4;stroke-dasharray:none;stroke-opacity:1"
       d="m 666.74414,99.625 c -5.77015,0.05297 -11.51075,0.41444 -17.17773,1.10938 -32.78204,4.01977 -67.17999,17.66929 -76.43946,30.33203 -2.6116,3.5717 -5.06819,6.45555 -7.43554,8.67968 V 1053.9668 H 553.60352 V 145.36328 c -4.66755,0.0856 -8.66073,-2.62166 -14.05664,-8.01758 -21.41477,-21.41478 -93.73868,23.15737 -104.5293,64.41992 -4.34419,16.61264 -20.86016,28.69869 -39.53125,28.86915 -17.63881,0.18408 -48.9824,13.56211 -69.65235,29.73046 -20.66989,16.16832 -46.03809,29.56024 -56.37304,29.73047 -16.74387,0.29771 -27.07678,43.62472 -19.59571,82.18164 7.14014,36.79736 -36.05645,83.51368 -77.2207,83.51368 -66.50167,0 -80.451608,47.55501 -53.41992,182.10546 12.18888,60.67971 17.29693,127.39752 11.34766,148.26172 -5.94871,20.86481 -6.69998,68.37557 -1.66602,105.58203 9.02193,66.69551 9.96442,67.63975 65.45898,66.92383 50.7873,-0.65393 56.30469,3.09992 56.30469,38.33203 0,21.48241 8.45412,48.09821 18.78906,59.14451 15.4678,16.5319 12.14538,18.2534 -18.78906,9.7383 -111.0613,-30.5714 -147.10839,-28.3975 -186.767576,11.2617 -46.189703,46.1897 -49.548209,98.1747 -9.337891,144.5371 20.840368,24.033 26.852148,46.5521 20.669922,77.4649 -5.388495,26.9431 -2.408187,43.582 7.808594,43.582 9.089537,0 27.020731,20.2932 39.847651,45.0977 12.82638,24.8039 33.61823,45.0976 46.20313,45.0976 12.58433,0 39.84403,18.3056 60.57813,40.6778 31.89631,34.4166 42.0893,37.9334 66.23242,22.8554 19.9563,-12.4622 31.52065,-12.9864 38.46875,-1.7441 5.90099,9.5497 30.59995,12.1976 60.82812,6.5273 61.65411,-11.5661 64.96719,-1.7478 9.55274,28.3145 -29.47427,15.9904 -33.78763,22.5747 -15.03125,23.0293 14.46893,0.3312 26.30664,8.1961 26.30664,17.4765 0,11.6577 6.96909,11.0875 22.54882,-1.8418 19.54322,-16.2206 22.54883,-8.4527 22.54883,58.2911 0,42.3528 -5.07183,76.8872 -11.27343,76.7734 -22.28005,-0.4551 -56.3865,-29.2164 -57.06836,-48.125 -1.24366,-34.5196 -37.39894,-86.9395 -59.96485,-86.9395 -12.11106,0 -22.01953,-5.1101 -22.01953,-11.3554 0,-12.9191 -101.14412,-51.1362 -135.29492,-51.1211 -84.990963,0.037 -158.049625,32.8911 -169.365235,76.1621 -9.3060087,35.5866 -0.5039767,46.4453 37.648437,46.4453 31.178166,0 71.585938,33.3352 71.585938,59.0566 0,8.8589 6.76328,16.1075 15.03125,16.1075 8.26796,0 15.0332,10.3584 15.0332,23.0195 0,36.6183 35.65647,40.8104 118.01172,13.873 l 76.58008,-25.0468 58.49219,46.3261 58.49023,46.3262 10.70508,187.8809 c 5.8862,103.3348 6.41409,194.8221 1.16992,203.3066 h -0.002 c -0.90032,1.4569 -0.92833,2.8161 -0.11328,4.0762 l -190.1543,26.0039 -274.8359369,37.5859 564.4453169,-0.6504 564.44723,-0.6504 -289.60934,-36.9355 -169.23829,-21.584 -7.33789,-36.6855 c -4.86973,-24.3471 -13.45933,-141.754 -19.08984,-260.9043 l -10.23633,-216.6367 43.51758,-8.4375 c 23.93514,-4.6419 61.49822,-4.8978 83.47266,-0.5684 30.16913,5.9436 44.10497,0.1149 56.90234,-23.7969 9.7242,-18.17 31.74713,-31.6679 51.66992,-31.6679 19.09777,-1e-4 46.09077,-12.5595 59.98242,-27.9102 22.1932,-24.5226 22.55539,-30.1513 2.98829,-46.3906 -12.24855,-10.1656 -29.97603,-13.7212 -39.39454,-7.9004 -9.4185,5.8209 -33.8091,1.6556 -54.20117,-9.2578 -28.49699,-15.2536 -43.50879,-15.827 -64.87695,-2.4825 -21.98975,13.7361 -29.53968,12.8311 -36.12305,-4.3242 -11.75138,-30.6236 59.17514,-45.6429 103.50586,-21.9179 19.47557,10.4442 45.51766,15.0685 57.87305,10.33 12.35539,-4.7413 30.55252,1.1241 40.4375,13.0352 24.1079,29.0493 54.71326,27.344 72.26948,-4.0274 7.9061,-14.1268 32.8308,-25.9657 55.3887,-26.3066 59.374,-0.9006 81.2579,-42.6592 43.9571,-83.8769 -25.7778,-28.4839 -38.4158,-31.0246 -104.5978,-21.0293 -41.40211,6.2526 -94.42406,11.9842 -117.82803,12.7285 -23.40336,0.7477 -51.20873,13.197 -61.78906,27.666 -10.57988,14.4689 -35.40154,26.5556 -55.16016,26.8398 -19.75854,0.2932 -52.83592,10.1995 -73.50586,22.0157 -48.19476,27.5493 -60.13281,27.6704 -60.13281,0.6035 0,-12.5792 25.66666,-29.6365 60.13281,-39.9629 33.07185,-9.9088 60.13086,-24.4318 60.13086,-32.2754 0,-7.8463 -11.10459,-10.007 -24.67578,-4.7969 -20.56085,7.8902 -21.5297,5.6803 -5.8125,-13.2578 10.37416,-12.5002 24.90566,-18.9938 32.29297,-14.4258 7.38784,4.5658 34.79803,-6.9128 60.91211,-25.5078 32.22871,-22.9488 65.48585,-32.7462 103.53711,-30.5019 69.31695,4.0902 108.53994,-28.8332 90.96084,-76.3536 -6.6475,-17.9699 -24.03579,-39.7618 -38.64053,-48.4257 -14.60421,-8.664 -45.56119,-34.3569 -68.79297,-57.0938 -53.39807,-52.2606 -121.42322,-55.2717 -159.96484,-7.082 -15.06894,18.8409 -39.23809,31.8776 -53.70703,28.9629 -18.91087,-3.8056 -26.497,4.5247 -26.89453,29.6308 -0.50283,29.8504 -3.76667,27.6068 -22.45703,-15.4375 -24.05685,-55.4019 -16.1183,-115.8043 16.88476,-128.4687 28.5055,-10.9384 26.75285,-54.58267 -3.95312,-98.4219 -14.42865,-20.59888 -16.91687,-30.81496 -5.83594,-23.96679 11.0719,6.84298 24.10447,4.18156 30.54297,-6.23633 7.0981,-11.48497 14.4275,-2.19011 19.91601,25.25976 10.68662,53.43156 104.14886,111.97226 132.88672,83.23436 12.51107,-12.5104 25.99162,-13.1146 46.59961,-2.0859 23.03233,12.3269 41.46245,6.8804 89.60547,-26.4824 68.75275,-47.64598 66.64425,-43.36916 78.59175,-159.39457 8.4708,-82.26886 6.5335,-88.89434 -41.7578,-142.81055 -45.03002,-50.27595 -135.44671,-213.92435 -124.33395,-225.03711 6.17654,-6.17601 71.9249,-7.16389 106.52734,-1.60156 50.44721,8.10947 44.26601,-44.84158 -13.45703,-115.28516 -29.74979,-36.30531 -69.20409,-70.65214 -87.67578,-76.32812 -45.97262,-14.12465 -86.19922,-59.10123 -86.19922,-96.37695 0,-44.27714 -72.05089,-86.609413 -140.13867,-85.98438 z"
       transform="scale(0.26458333)"
       id="path1059"
       inkscape:connector-curvature="0"
       sodipodi:nodetypes="cccccccsccsccsccccsccsccscsccccccscsccssccsssscccccccccccccccccccccccccccccsccccccccscscccccccsccccccccccccccccccscc" />
  </g>
</svg>
