<?xml version="1.0" encoding="UTF-8" standalone="no"?>
<svg
   xmlns:dc="http://purl.org/dc/elements/1.1/"
   xmlns:cc="http://creativecommons.org/ns#"
   xmlns:rdf="http://www.w3.org/1999/02/22-rdf-syntax-ns#"
   xmlns:svg="http://www.w3.org/2000/svg"
   xmlns="http://www.w3.org/2000/svg"
   xmlns:sodipodi="http://sodipodi.sourceforge.net/DTD/sodipodi-0.dtd"
   xmlns:inkscape="http://www.inkscape.org/namespaces/inkscape"
   sodipodi:docname="trees_new.svg"
   inkscape:version="1.0 (4035a4fb49, 2020-05-01)"
   id="svg8"
   version="1.1"
   viewBox="0 0 600 300"
   height="300mm"
   width="600mm">
  <defs
     id="defs2" />
  <sodipodi:namedview
     inkscape:snap-page="true"
     inkscape:document-rotation="0"
     inkscape:measure-end="568.563,606.188"
     inkscape:measure-start="556.5,606.188"
     inkscape:object-nodes="true"
     inkscape:window-maximized="1"
     inkscape:window-y="-8"
     inkscape:window-x="-8"
     inkscape:window-height="1017"
     inkscape:window-width="1920"
     showgrid="true"
     inkscape:current-layer="layer1"
     inkscape:document-units="mm"
     inkscape:cy="689.53729"
     inkscape:cx="1019.4596"
     inkscape:zoom="0.5"
     inkscape:pageshadow="2"
     inkscape:pageopacity="0.0"
     borderopacity="1.0"
     bordercolor="#666666"
     pagecolor="#ffffff"
     id="base">
    <inkscape:grid
       id="grid26"
       type="xygrid" />
  </sodipodi:namedview>
  <metadata
     id="metadata5">
    <rdf:RDF>
      <cc:Work
         rdf:about="">
        <dc:format>image/svg+xml</dc:format>
        <dc:type
           rdf:resource="http://purl.org/dc/dcmitype/StillImage" />
        <dc:title></dc:title>
      </cc:Work>
    </rdf:RDF>
  </metadata>
  <g
     style="display:inline"
     transform="translate(0,303)"
     id="layer1"
     inkscape:groupmode="layer"
     inkscape:label="poplar_bottom">
    <path
       sodipodi:nodetypes="sscccccccccssccsccscccccscscccccccsccscccscscssssccsss"
       inkscape:connector-curvature="0"
       id="path839"
       d="m 537.29664,-169.10482 c -0.0116,-8.8816 -1.5749,-15.69387 -5.02088,-25.86871 -6.12546,-18.08645 -8.19976,-20.43317 -19.01331,-21.50928 -7.78388,-0.7746 -12.97669,-3.85045 -14.47612,-8.57467 -2.90405,-9.14991 -15.15339,-13.38736 -24.14839,-8.3535 -5.39574,3.0196 -8.16776,1.48638 -13.66997,-7.56129 -4.89676,-8.05204 -10.034,-11.38516 -17.68316,-11.4732 -5.92969,-0.0682 -14.02259,-2.5799 -17.98443,-5.58157 -3.96186,-3.00165 -9.68774,-4.50436 -12.72377,-3.33933 -3.03601,1.16502 -8.10755,-0.0294 -11.27011,-2.65411 -3.16257,-2.62478 -8.48581,-3.7223 -11.82977,-2.43912 -3.51958,1.3506 -19.09876,-5.23103 -36.99516,-15.62954 -32.37918,-18.81357 -61.38031,-25.89355 -71.53725,-17.46405 -2.96264,2.45878 -8.16924,3.40299 -11.56983,2.09807 -7.81645,-2.99946 -31.90832,4.80146 -40.08694,12.98008 -3.41783,3.41783 -12.59602,7.25157 -20.39567,8.51937 -10.00106,1.62564 -14.61505,4.58642 -15.6533,10.04487 -0.80971,4.25696 -4.77685,12.39783 -8.816,18.09089 -4.03916,5.69307 -7.34425,16.31671 -7.34425,23.60786 0,9.96698 -3.30293,16.45808 -13.31135,26.15861 -7.32144,7.09622 -15.21817,11.7237 -17.54828,10.2836 -7.53914,-4.65945 -4.56496,11.9349 3.43702,19.17661 5.77342,5.22487 6.7424,8.68471 3.91345,13.97073 -2.06811,3.86424 -2.80847,9.50566 -1.64539,12.5367 2.44875,6.38127 -18.18089,4.29505 -87.934151,-8.89197 -16.78173,-3.17262 -32.98428,-5.91404 -41.71064,-7.10809 0,0 2.03188,-85.78616 -4.169669,-118.67634 C 15.22171,-292.07674 0,-303 0,-303 v 150.00995 28.64838 h 283.06515 v 3.19826 H 0 V -3.0000063 c 0,0 9.6244597,-0.38779 17.53305,-25.2623807 2.431359,-7.64727 5.675279,-73.654293 5.675279,-73.654293 34.22615,-6.91451 62.008181,-8.20643 93.118681,-6.92826 37.26269,1.7315 39.05982,2.23211 48.74532,13.577469 15.10789,17.697055 17.45329,23.023485 16.48272,37.435445 -1.25201,18.590459 8.74898,28.556699 27.31204,27.216429 9.97003,-0.71988 17.14092,1.29524 22.78465,6.40271 8.0229,7.260641 17.05456,9.195011 83.8631,17.9616807 30.67516,4.02524 31.31696,3.93536 38.35631,-5.3779697 6.84222,-9.05245 7.84133,-9.23663 22.5795,-4.1589 13.96456,4.81118 30.10225,4.01304 40.45438,-2.00041 2.14476,-1.24579 7.73709,-1.76948 12.42715,-1.16375 4.69006,0.60574 12.14785,-2.519491 16.57314,-6.944781 4.4253,-4.42529 9.22424,-8.04603 10.66395,-8.04603 5.33589,0 16.88011,-13.115569 16.88011,-19.177639 0,-3.44857 3.90268,-8.00209 8.67234,-10.11928 5.46394,-2.42535 9.91589,-9.1773 12.03389,-18.251085 2.905,-12.44527 5.03401,-14.56412 15.67346,-15.59853 15.3447,-1.491879 20.15559,-10.792729 25.4186,-49.139119 1.33872,-9.75392 2.05694,-16.79924 2.04897,-22.87612 z"
       style="fill:none;stroke:#ff0000;stroke-width:0.01;stroke-miterlimit:4;stroke-dasharray:none;stroke-opacity:1" />
  </g>
  <g
     inkscape:label="poplar_top"
     inkscape:groupmode="layer"
     id="g991"
     transform="translate(0,303)"
     style="display:none">
    <path
       sodipodi:nodetypes="sscccccccccssccsccscccccscscccsccscccscscssssccsccccss"
       inkscape:connector-curvature="0"
       id="path985"
       d="m 537.29665,-169.10482 c -0.0116,-8.8816 -1.5749,-15.69387 -5.02088,-25.86871 -6.12546,-18.08645 -8.19976,-20.43317 -19.01331,-21.50928 -7.78388,-0.7746 -12.97669,-3.85045 -14.47612,-8.57467 -2.90405,-9.14991 -15.15339,-13.38736 -24.14839,-8.3535 -5.39574,3.0196 -8.16776,1.48638 -13.66997,-7.56129 -4.89676,-8.05204 -10.034,-11.38516 -17.68316,-11.4732 -5.92969,-0.0682 -14.02259,-2.5799 -17.98443,-5.58157 -3.96186,-3.00165 -9.68774,-4.50436 -12.72377,-3.33933 -3.03601,1.16502 -8.10755,-0.0294 -11.27011,-2.65411 -3.16257,-2.62478 -8.48581,-3.7223 -11.82977,-2.43912 -3.51958,1.3506 -19.09876,-5.23103 -36.99516,-15.62954 -32.37918,-18.81357 -61.38031,-25.89355 -71.53725,-17.46405 -2.96264,2.45878 -8.16924,3.40299 -11.56983,2.09807 -7.81645,-2.99946 -31.90832,4.80146 -40.08694,12.98008 -3.41783,3.41783 -12.59602,7.25157 -20.39567,8.51937 -10.00106,1.62564 -14.61505,4.58642 -15.6533,10.04487 -0.80971,4.25696 -4.77685,12.39783 -8.816,18.09089 -4.03916,5.69307 -7.34425,16.31671 -7.34425,23.60786 0,9.96698 -3.30293,16.45808 -13.31135,26.15861 -7.32144,7.09622 -15.21817,11.7237 -17.54828,10.2836 -7.53914,-4.65945 -4.56496,11.9349 3.43702,19.17661 5.77342,5.22487 6.7424,8.68471 3.91345,13.97073 -2.06811,3.86424 -2.80847,9.50566 -1.64539,12.5367 2.44875,6.38127 -18.18089,4.29505 -87.934161,-8.89197 -16.78173,-3.17262 -32.98428,-5.91404 -41.71064,-7.10809 0,0 0.22953,-89.27695 -3.42132,-113.06368 C 15.09331,-295.67587 0,-303 0,-303 v 150.00995 149.990047 c 0,0 9.62439,-0.76198 17.533,-25.63656 2.431359,-7.64727 5.675329,-73.280117 5.675329,-73.280117 34.22615,-6.91451 62.008131,-8.20643 93.118641,-6.92826 37.26269,1.7315 39.05982,2.23211 48.74532,13.577472 15.10789,17.697055 17.45329,23.023485 16.48272,37.435445 -1.25201,18.59046 8.74898,28.5567 27.31204,27.21643 9.97003,-0.71988 17.14092,1.29524 22.78465,6.40271 8.0229,7.26064 17.05456,9.19501 83.8631,17.96168 30.67516,4.02524 31.31696,3.93536 38.35631,-5.37797 6.84222,-9.05245 7.84133,-9.23663 22.5795,-4.1589 13.96456,4.81118 30.10225,4.01304 40.45438,-2.00041 2.14476,-1.24579 7.73709,-1.76948 12.42715,-1.16375 4.69006,0.60574 12.14785,-2.51949 16.57314,-6.94478 4.4253,-4.42529 9.22424,-8.04603 10.66395,-8.04603 5.33589,0 16.88011,-13.11557 16.88011,-19.17764 0,-3.44857 3.90268,-8.00209 8.67234,-10.11928 5.46394,-2.42535 9.91589,-9.1773 12.03389,-18.251085 2.905,-12.44527 5.03401,-14.56412 15.67346,-15.59853 11.20754,-1.08965 16.79392,-6.361212 21.04316,-24.056932 H 283.06516 v -3.19826 h 248.48921 c 1.29555,-6.00329 2.48343,-13.06873 3.69331,-21.88393 1.33872,-9.75392 2.05694,-16.79924 2.04897,-22.87612 z"
       style="fill:none;stroke:#ff0000;stroke-width:0.01;stroke-miterlimit:4;stroke-dasharray:none;stroke-opacity:1" />
  </g>
  <g
     style="display:none"
     inkscape:label="fir_bottom"
     id="layer2"
     inkscape:groupmode="layer">
    <path
       sodipodi:nodetypes="csssscsccccccscccccccccccccscccccscsscccccccccsssccccscsssccccccccccccccccccscsccccccscccscccscccccccccccccccccccsccccsssccsccccscsccccscsccscccsccccscccscc"
       inkscape:connector-curvature="0"
       id="path872"
       d="m 444.34244,158.6838 c 0,-1.72488 -4.93939,-3.13624 -10.97659,-3.13624 -6.03708,0 -10.97659,-1.41137 -10.97659,-3.13625 0,-1.72488 1.41136,-3.13624 3.13624,-3.13624 1.72488,0 3.13625,-1.57596 3.13625,-3.50211 0,-1.95646 -2.76559,-2.77884 -6.27249,-1.86139 -3.44976,0.90215 -6.27197,0.26032 -6.27197,-1.42627 0,-5.12307 -7.62324,-11.05428 -12.23284,-9.51776 -3.19279,1.0643 -3.9201,-0.7297 -2.75849,-6.80424 1.71872,-8.99101 -0.4015,-10.41944 -6.46524,-4.3558 -3.10116,3.10056 -4.42619,3.03247 -6.50761,-0.33538 -1.82326,-2.94966 -3.26241,-3.17906 -4.75888,-0.75758 -4.23728,6.8571 -7.56117,3.30195 -5.06119,-5.41466 2.00081,-6.97669 1.52479,-8.88576 -2.21692,-8.88576 -2.62122,0 -5.41721,2.48951 -6.21255,5.53248 -0.7957,3.04295 -3.59504,6.35689 -6.22029,7.36441 -3.60704,1.38422 -4.35331,0.22712 -3.05562,-4.73511 1.30777,-5.00169 0.56018,-6.12257 -3.13625,-4.70411 -4.978,1.91003 -4.82252,-1.16351 0.78239,-15.479674 2.36175,-6.03293 2.21581,-6.06273 -3.81889,-0.77773 -3.45106,3.02245 -7.32464,4.44559 -8.60775,3.1626 -1.28311,-1.28313 -3.70807,0.12481 -5.38933,3.129 -4.89715,8.750744 -7.86003,6.333624 -6.50143,-5.30407 1.08482,-9.29209 0.44779,-10.55486 -4.6524,-9.22114 -4.36116,1.14052 -6.04306,-0.23984 -6.42237,-5.26893 -0.28236,-3.74786 -1.09892,-7.39933 -1.81488,-8.11526 -3.05099,-3.05114 -17.48703,5.32763 -19.36313,11.23859 -1.12617,3.54861 -4.06969,6.45232 -6.54069,6.45232 -5.56082,0 -5.51791,-2.52273 0.21135,-12.54497 6.76024,-11.82596 5.55067,-15.45355 -1.5684,-4.70411 -5.21398,7.87279 -6.24067,8.38473 -6.29986,3.13624 -0.058,-5.29127 -0.58854,-5.53632 -3.39513,-1.56786 -2.50365,3.53961 -3.72049,3.73356 -4.91755,0.78342 -0.87487,-2.1561 -3.64011,-3.92018 -6.14431,-3.92018 -3.64368,0 -3.85352,-1.30682 -1.05214,-6.5412 4.31162,-8.0564 1.6706,-11.4134 -4.77232,-6.0663 -3.11941,2.58886 -4.78007,2.77821 -4.78007,0.54519 0,-1.95163 -2.35836,-2.53825 -5.48854,-1.36478 -4.9748,1.86463 -5.04798,1.51127 -0.78343,-3.77858 4.31231,-5.34923 4.182,-5.68912 -1.56787,-4.07934 -3.44974,0.96592 -8.97361,2.86192 -12.27521,4.21318 -4.69114,1.91999 -5.41615,1.48385 -3.31814,-1.99626 2.29158,-3.80156 1.90728,-3.82336 -2.62207,-0.14934 -2.91838,2.36709 -5.35803,3.07263 -5.41724,1.56786 -0.061,-1.50488 -2.12788,0.7924 -4.59301,5.1046 -2.46499,4.31244 -4.53369,6.6807 -4.59298,5.26376 -0.22106,-5.12438 -9.51984,6.97622 -9.51984,12.38839 0,4.15444 -0.90043,4.65479 -3.57084,1.98438 -2.67042,-2.67041 -1.46066,-9.26368 4.79713,-26.14621 8.03648,-21.68119 9.24002,-32.276453 2.16472,-19.0562 -2.50447,4.68 -5.5839,5.93558 -11.79463,4.80953 -4.62298,-0.83826 -9.41604,-2.14863 -10.65104,-2.91197 -1.23499,-0.76323 -6.27321,0.71289 -11.19621,3.28042 -10.99704,5.73494 -23.0637,6.10005 -23.0637,0.69711 0,-2.70371 -4.08543,-3.78127 -12.54498,-3.30832 -10.43649,0.58341 -12.54445,-0.2899 -12.54445,-5.19607 0,-3.89295 -3.7306,-7.24643 -10.97659,-9.866583 -6.03707,-2.18301 -10.97658,-5.53178 -10.97658,-7.44192 0,-3.8441197 -22.156103,-3.7229897 -28.430833,0.15503 -2.78326,1.72061 -3.40302,0.0888 -2.25205,-5.9329697 1.72167,-9.00655 -0.37936,-10.48768 -6.37379,-4.49327 -2.0973,2.09743 -8.31376,3.86092 -13.81413,3.92018 -9.46267,0.1011 -10.3836,1.20339 -17.11577,20.4917727 -3.91334,11.21172 -7.15049,23.60489 -7.19799,27.53992 -0.0457,3.93515 -1.84726,7.83103 -4.00338,8.65838 -4.97454,1.90778 -4.64629,52.342154 0.42426,65.146934 6.4267,16.22918 4.73668,20.96513 -7.48067,20.96513 l -5.302514,0.002 C 19.769203,123.73843 18.044783,46.536636 10.583333,10.583333 L 0.12811333,-1.0883667 V 148.94842 156.99754 L 197.0416,156.98954 v 3.19825 H 0.12811333 v 138.72385 c 0,0 15.00635967,-7.31824 18.48516967,-33.09302 1.84404,-13.6627 1.86464,-85.18039 1.86464,-85.18039 h 5.001334 c 5.9354,0 11.46818,1.0942 12.29434,2.43137 0.82653,1.33716 1.84486,11.56878 2.26446,22.73712 0.41902,11.16822 2.01229,23.99004 3.54087,28.49283 1.52847,4.50281 3.24019,11.55911 3.80441,15.6807 2.07383,15.15873 5.89915,21.6888 16.568,28.28251 6.004,3.71065 14.39675,10.22699 18.65053,14.48078 4.25363,4.25365 8.27448,7.19381 8.93588,6.5324 0.66093,-0.66093 -0.17939,-7.34729 -1.86706,-14.85902 -1.68812,-7.51163 -2.58625,-14.13868 -1.99832,-14.7278 0.58862,-0.58851 5.66402,3.12587 11.2789,8.25429 5.614853,5.12842 10.899513,9.3245 11.743453,9.3245 0.84394,0 3.81535,-5.29223 6.60323,-11.76055 l 5.06842,-11.76051 6.3283,14.89678 c 3.48057,8.19316 7.62937,14.89675 9.21959,14.89675 1.5865,0 2.27785,-1.76458 1.52755,-3.92072 -0.75031,-2.15607 1.14323,-6.31767 4.20801,-9.24799 5.25973,-5.02898 5.69645,-4.94082 7.78298,1.56835 2.02737,6.32455 2.51357,6.00085 5.86994,-3.90721 2.30497,-6.80389 4.51681,-9.41644 5.97535,-7.05646 3.42689,5.54474 8.19931,4.54464 8.31784,-1.74149 0.089,-4.89847 0.61402,-4.81425 4.87929,0.7834 2.62855,3.44991 7.07316,5.7988 9.87689,5.22037 2.80387,-0.57867 7.77407,2.24403 11.04533,6.27247 l 5.94796,7.32415 -1.64383,-12.54446 c -0.90427,-6.89956 -2.63771,-18.18979 -3.85196,-25.08943 l -2.20761,-12.54445 6.74429,5.97431 c 3.70922,3.28583 6.76814,8.22535 6.79182,10.97659 0.0265,2.75125 1.36512,7.08512 2.97503,9.63091 2.41343,3.81638 3.38611,3.38852 5.54125,-2.43755 l 2.61432,-7.06675 6.95513,6.48022 c 4.67527,4.35555 6.95566,5.10345 6.95566,2.28098 0,-2.30945 -1.2876,-5.54016 -2.86134,-7.17887 -1.57363,-1.63859 -3.33817,-8.5892 -3.92017,-15.44557 -1.33395,-15.70385 6.4334,-18.53083 18.30276,-6.66161 4.42929,4.42943 9.20742,7.33954 10.61794,6.46834 1.41066,-0.87181 4.01966,0.91446 5.79811,3.96927 6.00189,10.30934 3.54814,-2.29289 -2.91198,-14.95568 -3.48483,-6.83077 -5.60139,-12.41991 -4.70411,-12.41991 0.89742,0 2.53223,0.12123 3.63339,0.2682 1.1008,0.14734 2.99244,-1.33567 4.20336,-3.29489 2.48621,-4.02275 22.02087,12.46207 22.02087,18.58284 0,1.99667 1.52363,2.68886 3.38635,1.53789 1.86275,-1.15118 5.52834,0.96416 8.14576,4.70101 4.53765,6.47813 4.95353,6.53057 8.94675,1.12396 2.59739,-3.51684 3.0771,-6.80169 1.26296,-8.6496 -1.6088,-1.63859 -2.92489,-5.32737 -2.92489,-8.19691 0,-2.86955 -3.30491,-8.5854 -7.34425,-12.70156 -6.55471,-6.67939 -13.10216,-21.59661 -9.47899,-21.59661 2.2093,0 9.90828,6.70243 24.65274,21.46122 l 13.60744,13.62036 -4.86172,-16.7566 c -2.67406,-9.21624 -6.7922,-17.88562 -9.15085,-19.26497 -2.35868,-1.37948 -4.28863,-3.84886 -4.28863,-5.48804 0,-4.83089 9.44279,-3.40425 11.41068,1.72392 0.9928,2.58745 3.59987,4.70411 5.79343,4.70411 2.19344,0 5.7137,4.16517 7.82227,9.25577 2.10868,5.09061 7.08613,11.38625 11.06134,13.99087 6.64599,4.35463 6.36117,3.07402 -3.53674,-15.9153 -10.33625,-19.8303 -10.48034,-20.56331 -3.62459,-18.44229 3.92687,1.21483 10.66764,2.9289 14.97997,3.80959 4.31219,0.88046 12.28765,3.58925 17.72295,6.01927 14.59842,6.52674 15.82299,5.47279 5.79862,-4.99039 -10.53573,-10.99694 -6.05063,-12.11838 12.54445,-3.13625 17.46523,8.43628 19.07531,7.78064 9.33018,-3.8008 -9.99249,-11.87538 -5.62478,-15.25121 7.57318,-5.85339 12.4191,8.84309 15.57504,8.21273 6.61768,-1.32188 -7.32482,-7.79293 -7.32814,-7.84087 -0.66817,-7.84087 3.68326,0 9.73444,3.17544 13.44724,7.05642 l 6.75049,7.05642 -2.13527,-7.05642 c -1.89095,-6.24795 -1.03377,-7.05642 7.4843,-7.05642 5.29093,0 9.61956,-1.41083 9.61957,-3.13572 z"
       style="fill:none;stroke:#ff0000;stroke-width:0.01;stroke-miterlimit:4;stroke-dasharray:none;stroke-opacity:1" />
  </g>
  <g
     inkscape:groupmode="layer"
     id="g1017"
     inkscape:label="fir_top"
     style="display:none">
    <path
       sodipodi:nodetypes="ccccsssscsccccccscccccccccccccscccccscsscccccccccsssccccscsssccccccccccscccscsccccccscccscccscccccccccccccccccccsccccsssccsccccscsccccscsccscccsccccscccscc"
       inkscape:connector-curvature="0"
       id="path1011"
       d="M 443.03248,161.27232 H 196.91107 v -3.19911 h 245.95605 c -1.86928,-0.9728 -5.49085,-1.43729 -9.62939,-1.43729 -6.03708,0 -10.97659,-1.41137 -10.97659,-3.13625 0,-1.72488 1.41136,-3.13624 3.13624,-3.13624 1.72488,0 3.13625,-1.57596 3.13625,-3.50211 0,-1.95646 -2.76559,-2.77884 -6.27249,-1.86139 -3.44976,0.90215 -6.27197,0.26032 -6.27197,-1.42627 0,-5.12307 -7.62324,-11.05428 -12.23284,-9.51776 -3.19279,1.0643 -3.9201,-0.7297 -2.75849,-6.80424 1.71872,-8.99101 -0.4015,-10.41944 -6.46524,-4.3558 -3.10116,3.10056 -4.42619,3.03247 -6.50761,-0.33538 -1.82326,-2.94966 -3.26241,-3.17906 -4.75888,-0.75758 -4.23728,6.8571 -7.56117,3.30195 -5.06119,-5.41466 2.00081,-6.97669 1.52479,-8.88576 -2.21692,-8.88576 -2.62122,0 -5.41721,2.48951 -6.21255,5.53248 -0.7957,3.04295 -3.59504,6.35689 -6.22029,7.36441 -3.60704,1.38422 -4.35331,0.22712 -3.05562,-4.73511 1.30777,-5.00169 0.56018,-6.12257 -3.13625,-4.70411 -4.978,1.91003 -4.82252,-1.16351 0.78239,-15.479677 2.36175,-6.03293 2.21581,-6.06273 -3.81889,-0.77773 -3.45106,3.02245 -7.32464,4.44559 -8.60775,3.1626 -1.28311,-1.28312 -3.70807,0.12481 -5.38933,3.129007 -4.89715,8.75074 -7.86003,6.33362 -6.50143,-5.304067 1.08482,-9.2921 0.44779,-10.55487 -4.6524,-9.22114 -4.36116,1.14051 -6.04306,-0.23985 -6.42237,-5.26893 -0.28236,-3.74787 -1.09892,-7.39934 -1.81488,-8.11527 -3.05099,-3.05114 -17.48703,5.32763 -19.36313,11.23859 -1.12617,3.54861 -4.06969,6.45232 -6.54069,6.45232 -5.56082,0 -5.51791,-2.52272 0.21135,-12.54497 6.76024,-11.82595 5.55067,-15.45355 -1.5684,-4.70411 -5.21398,7.87279 -6.24067,8.38473 -6.29986,3.13625 -0.058,-5.29128 -0.58854,-5.53632 -3.39513,-1.56787 -2.50365,3.53961 -3.72049,3.73356 -4.91755,0.78342 -0.87487,-2.1561 -3.64011,-3.92018 -6.14431,-3.92018 -3.64368,0 -3.85352,-1.30682 -1.05214,-6.5412 4.31162,-8.05639 1.6706,-11.4134 -4.77232,-6.0663 -3.11941,2.58886 -4.78007,2.77822 -4.78007,0.54519 0,-1.95163 -2.35836,-2.53824 -5.48854,-1.36478 -4.9748,1.86463 -5.04798,1.51128 -0.78343,-3.77858 4.31231,-5.34923 4.182,-5.68912 -1.56787,-4.07933 -3.44974,0.96592 -8.97361,2.86191 -12.27521,4.21318 -4.69114,1.91998 -5.41615,1.48384 -3.31814,-1.99626 2.29158,-3.80157 1.90728,-3.82337 -2.62207,-0.14935 -2.91839,2.36709 -5.35803,3.07263 -5.41724,1.56786 -0.061,-1.50488 -2.12788,0.7924 -4.59301,5.1046 -2.46499,4.31244 -4.53369,6.6807 -4.59298,5.26376 -0.22107,-5.12438 -9.51984,6.97622 -9.51984,12.38839 0,4.15444 -0.90043,4.65479 -3.57084,1.98438 -2.67042,-2.67041 -1.46066,-9.26367 4.79713,-26.14621 8.03648,-21.68119 9.24002,-32.276443 2.16472,-19.0562 -2.50448,4.68001 -5.5839,5.93558 -11.79463,4.80953 -4.62298,-0.83826 -9.41604,-2.14862 -10.65104,-2.91197 -1.23499,-0.76323 -6.27321,0.7129 -11.19621,3.28042 -10.99704,5.73494 -23.0637,6.10005 -23.0637,0.69711 0,-2.70371 -4.08544,-3.78126 -12.54498,-3.30832 -10.43649,0.58341 -12.54446,-0.2899 -12.54446,-5.19607 0,-3.89295 -3.7306,-7.24642 -10.97658,-9.866583 -6.03707,-2.183 -10.97659,-5.53177 -10.97659,-7.44192 0,-3.84411 -22.156095,-3.72299 -28.430825,0.15503 -2.78326,1.72061 -3.40302,0.0888 -2.25205,-5.93297 1.72167,-9.00655 -0.37936,-10.48768 -6.37379,-4.49327 -2.0973,2.09743 -8.31376,3.86092 -13.81413,3.92018 -9.46267,0.1011 -10.3836,1.20339 -17.11577,20.491773 -3.91334,11.21172 -7.15049,23.60489 -7.19799,27.53992 -0.0457,3.93515 -1.84726,7.83103 -4.00338,8.65839 -4.97454,1.90777 -4.64629,52.342147 0.42426,65.146927 6.4267,16.22918 4.73668,20.96513 -7.48067,20.96513 l -5.302505,0.002 C 19.64109,124.82679 17.91667,21.16666 9.70687,11.29752 6.70966,7.69452 0,0 0,0 V 150.03678 300 c 0,0 13.49538,-5.25247 18.11086,-30.84823 2.48429,-13.77696 1.86464,-87.42546 1.86464,-87.42546 h 5.375495 c 5.9354,0 11.46818,1.09421 12.29434,2.43138 0.82654,1.33716 1.84486,11.56877 2.26447,22.73711 0.41902,11.16822 2.01229,23.99005 3.54086,28.49284 1.52847,4.50281 3.2402,11.5591 3.80442,15.68069 2.07383,15.15872 5.89915,21.6888 16.568,28.2825 6.004,3.71065 14.39674,10.227 18.65053,14.48078 4.25363,4.25365 8.27447,7.19381 8.93588,6.53241 0.66093,-0.66093 -0.17939,-7.3473 -1.86706,-14.85903 -1.68812,-7.51163 -2.58625,-14.13867 -1.99832,-14.72779 0.58862,-0.58852 5.66401,3.12586 11.2789,8.25428 5.614845,5.12842 10.899505,9.3245 11.743445,9.3245 0.84394,0 3.81534,-5.29222 6.60323,-11.76054 l 5.06841,-11.76052 6.32831,14.89678 c 3.48056,8.19317 7.62936,14.89676 9.21959,14.89676 1.58649,0 2.27785,-1.76459 1.52754,-3.9207 -0.7503,-2.15609 1.14324,-6.31767 4.20802,-9.24801 5.25973,-5.02896 5.69645,-4.94083 7.78298,1.56837 2.02737,6.32452 2.51357,6.00085 5.86994,-3.90724 2.30497,-6.80389 4.51681,-9.41641 5.97535,-7.05643 3.42688,5.54471 8.1993,4.54461 8.31784,-1.74149 0.089,-4.89847 0.61402,-4.81425 4.87928,0.7834 2.62856,3.44991 7.07316,5.7988 9.8769,5.22037 2.80387,-0.57867 7.77407,2.24403 11.04532,6.27247 l 5.94797,7.32412 -1.64383,-12.54445 c -0.90427,-6.89954 -2.63771,-18.18978 -3.85197,-25.08942 l -2.2076,-12.54446 6.74428,5.97432 c 3.70922,3.28583 6.76815,8.22535 6.79183,10.97659 0.0265,2.75125 1.36512,7.08511 2.97503,9.63092 2.41342,3.81638 3.38611,3.38852 5.54125,-2.43756 l 2.61432,-7.06676 6.95513,6.48023 c 4.67526,4.35556 6.95565,5.10346 6.95565,2.28099 0,-2.30946 -1.28759,-5.54017 -2.86133,-7.17889 -1.57364,-1.63858 -3.33817,-8.58919 -3.92018,-15.44556 -1.33394,-15.70385 6.4334,-18.53083 18.30277,-6.66161 4.42928,4.42943 9.20742,7.33954 10.61794,6.46834 1.41065,-0.87181 4.01965,0.91446 5.7981,3.96927 6.00189,10.30933 3.54815,-2.29289 -2.91197,-14.95568 -3.48483,-6.83077 -5.60139,-12.41992 -4.70411,-12.41992 0.89741,0 2.53222,0.12123 3.63339,0.26821 1.1008,0.14734 2.99244,-1.33567 4.20336,-3.29489 2.48621,-4.02275 22.02087,12.46207 22.02087,18.58284 0,1.99667 1.52363,2.68885 3.38635,1.53789 1.86275,-1.15119 5.52834,0.96416 8.14575,4.70101 4.53766,6.47813 4.95353,6.53057 8.94676,1.12396 2.59738,-3.51684 3.0771,-6.80169 1.26296,-8.6496 -1.6088,-1.63859 -2.92489,-5.32738 -2.92489,-8.19692 0,-2.86955 -3.30491,-8.58539 -7.34425,-12.70155 -6.55471,-6.67939 -13.10217,-21.59661 -9.47899,-21.59661 2.2093,0 9.90827,6.70243 24.65274,21.46122 l 13.60744,13.62036 -4.86172,-16.7566 c -2.67407,-9.21624 -6.7922,-17.88563 -9.15085,-19.26498 -2.35868,-1.37948 -4.28864,-3.84885 -4.28864,-5.48803 0,-4.83089 9.4428,-3.40425 11.41069,1.72392 0.9928,2.58745 3.59987,4.70411 5.79342,4.70411 2.19345,0 5.71371,4.16516 7.82228,9.25576 2.10867,5.09061 7.08613,11.38626 11.06134,13.99088 6.64599,4.35463 6.36117,3.07402 -3.53674,-15.91531 -10.33625,-19.8303 -10.48034,-20.5633 -3.62459,-18.44228 3.92686,1.21483 10.66764,2.9289 14.97997,3.80959 4.31219,0.88045 12.28765,3.58925 17.72295,6.01927 14.59842,6.52673 15.82299,5.47279 5.79861,-4.9904 -10.53573,-10.99694 -6.05062,-12.11837 12.54446,-3.13624 17.46523,8.43628 19.07531,7.78064 9.33017,-3.8008 -9.99248,-11.87538 -5.62477,-15.25121 7.57319,-5.85339 12.4191,8.84309 15.57504,8.21273 6.61768,-1.32188 -7.32482,-7.79293 -7.32815,-7.84087 -0.66818,-7.84087 3.68326,0 9.73444,3.17544 13.44724,7.05642 l 6.7505,7.05641 -2.13527,-7.05641 c -1.89095,-6.24795 -1.03378,-7.05642 7.48429,-7.05642 3.62622,0 6.79928,-0.66324 8.43773,-1.63556 z"
       style="fill:none;stroke:#ff0000;stroke-width:0.01;stroke-miterlimit:4;stroke-dasharray:none;stroke-opacity:1" />
  </g>
  <g
     style="display:none"
     inkscape:label="secoia_bottom"
     id="layer3"
     inkscape:groupmode="layer">
    <path
       sodipodi:nodetypes="sccccccsccccccsccccsccccccccccsccccccscccccscsccccccccs"
       inkscape:connector-curvature="0"
       id="path886"
       d="m 599.85363,144.84736 c -0.0118,-4.67515 -1.53842,-8.40585 -4.73304,-10.38025 -2.65633,-1.64154 -6.78808,-8.13488 -9.18136,-14.42961 -3.29865,-8.67615 -6.86543,-10.96445 -14.74431,-9.45833 -5.71618,1.0928 -13.05324,-0.86146 -16.30495,-4.34237 -3.25173,-3.48039 -8.60362,-5.29584 -11.89282,-4.03387 -3.28921,1.26214 -7.10949,-0.64671 -8.48837,-4.241603 -1.37939,-3.59508 -7.28083,-6.53603 -13.11393,-6.53603 -5.8329,0 -12.71226,-2.10722 -15.28743,-4.68241 -3.21029,-3.21028 -8.82495,-2.53278 -17.86041,2.15491 -8.32248,4.31769 -14.77082,5.24501 -17.49971,2.51613 -2.68486,-2.68506 -6.26212,-2.71095 -9.44594,-0.0687 -3.27767,2.72029 -9.95544,1.66479 -18.53116,-2.9285 -8.52913,-4.56822 -23.33863,-6.92917 -40.70139,-6.48901 -33.90247,0.85915 -28.01803,1.1769 -80.79043,-4.36356 -55.45142,-5.82173 -76.39507,-1.07991 -97.63175,22.10511 -8.36731,9.135203 -14.01053,19.383833 -12.63851,22.956743 2.10167,5.47598 -9.07965,6.06598 -73.81875,3.88761 -83.129169,-2.79699 -98.87995,-2.95007 -119.79949,-20.55131 0,0 -0.81479,-65.177793 -2.93561,-76.447363 C 9.9121397,5.3790867 -0.49106033,-0.49103333 -0.49106033,-0.49103333 V 139.25135 H 329.62154 v 3.19825 H -0.49106033 v 6.72155 l -0.027,33.63568 v 18.85259 l 0.0217,-0.0196 0.005,97.86919 c 0,0 12.71892033,-5.55718 17.36238033,-31.22282 2.44404,-13.50877 1.96088,-86.48468 1.96088,-86.48468 11.61516,-9.60226 19.66537,-13.06884 33.842858,-16.95789 26.742945,-6.80173 93.355182,-10.83305 121.299552,-7.34167 22.85923,2.8561 25.28027,4.2391 26.54567,15.16031 1.11654,9.64066 3.89575,12.10848 14.05133,12.47831 6.96251,0.25379 13.73582,-1.28161 15.05284,-3.41168 1.31648,-2.13002 4.57046,-3.87315 7.23109,-3.87315 3.06914,0 2.78484,2.47392 -0.77722,6.766 -8.60147,10.36399 -2.252,19.70251 15.68432,23.06733 8.91598,1.67258 17.33693,4.86351 18.71411,7.09104 3.23829,5.23993 24.82339,0.10097 34.39065,-8.18762 4.709,-4.07937 11.78197,-5.33994 19.33318,-3.44475 7.4795,1.8773 11.90729,1.11356 11.90729,-2.05362 0,-7.72085 27.16669,-6.11857 30.19816,1.78129 2.95102,7.69027 17.82286,9.22012 22.11544,2.27479 3.22062,-5.21089 26.42757,-6.17339 31.303,-1.29811 1.78774,1.78793 12.87619,3.4657 24.64036,3.7269 15.53773,0.34608 24.24276,-2.05424 31.8177,-8.77362 8.87986,-7.87682 11.80016,-8.39298 19.67218,-3.47679 7.38906,4.6139 14.42632,4.65851 35.06194,0.22169 14.19976,-3.05299 28.28665,-7.4359 31.30455,-9.73997 3.01773,-2.30388 7.36132,-3.02933 9.65212,-1.61437 2.2908,1.4157 9.54477,-3.92014 16.1206,-11.85768 7.69035,-9.28297 11.87937,-19.69892 11.85974,-27.49083 z"
       style="fill:none;stroke:#ff0000;stroke-width:0.01;stroke-miterlimit:4;stroke-dasharray:none;stroke-opacity:1" />
  </g>
  <g
     inkscape:groupmode="layer"
     id="g1033"
     inkscape:label="secoia_top"
     style="display:none">
    <path
       sodipodi:nodetypes="cccccccccccsccccccsccccsccccccsccccccscccccscsccccccccc"
       inkscape:connector-curvature="0"
       id="path1027"
       d="m 600.11868,144.79305 c -0.002,-0.83226 -0.0545,-1.63307 -0.15348,-2.40089 H 329.89178 v -3.19877 H 599.2624 c -0.76379,-2.1345 -2.04464,-3.64826 -3.87676,-4.78059 -2.65633,-1.64154 -6.78808,-8.13488 -9.18135,-14.42961 -3.29866,-8.67615 -6.86544,-10.96445 -14.74432,-9.45833 -5.71618,1.0928 -13.05324,-0.86146 -16.30495,-4.34237 -3.25173,-3.48039 -8.60362,-5.29584 -11.89282,-4.03387 -3.28921,1.26214 -7.10949,-0.64671 -8.48837,-4.241603 -1.37939,-3.59508 -7.28083,-6.53603 -13.11393,-6.53603 -5.8329,0 -12.71226,-2.10722 -15.28743,-4.68241 -3.21029,-3.21028 -8.82495,-2.53278 -17.86041,2.15491 -8.32248,4.31769 -14.77082,5.24501 -17.49971,2.51613 -2.68486,-2.68506 -6.26212,-2.71095 -9.44593,-0.0687 -3.27768,2.72029 -9.95545,1.66479 -18.53117,-2.9285 -8.52913,-4.56822 -23.33863,-6.92917 -40.70139,-6.48901 -33.90247,0.85915 -28.01803,1.1769 -80.79043,-4.36356 -55.45142,-5.82173 -76.39507,-1.07991 -97.63175,22.10511 -8.36731,9.135203 -14.01053,19.383833 -12.63851,22.956743 2.10167,5.47598 -9.07965,6.06598 -73.81875,3.88761 -83.129168,-2.79699 -98.50575,-2.95007 -119.42529,-20.55131 0,0 -1.20872,-64.684753 -2.56146,-74.576473 C 12.15286,7.0925067 -0.46376033,-0.22598333 -0.46376033,-0.22598333 l 0.17208,149.34282333 0.0387,33.63568 v 18.85259 l 0.0217,-0.0196 0.005,97.86919 c 0,0 15.12864033,-9.17506 18.37862033,-34.71796 1.44079,-11.32368 0.94472,-83.36371 0.94472,-83.36371 11.61516,-9.60226 19.66537,-12.69467 33.842857,-16.58372 26.742946,-6.80173 93.355183,-10.83305 121.299553,-7.34167 22.85923,2.8561 25.28027,4.2391 26.54567,15.16031 1.11654,9.64066 3.89575,12.10848 14.05133,12.47831 6.96251,0.25379 13.73582,-1.28161 15.05284,-3.41168 1.31648,-2.13002 4.57046,-3.87315 7.23108,-3.87315 3.06914,0 2.78485,2.47392 -0.77721,6.766 -8.60147,10.36399 -2.252,19.70251 15.68432,23.06733 8.91598,1.67258 17.33692,4.86351 18.71411,7.09104 3.23829,5.23993 24.82339,0.10097 34.39064,-8.18762 4.70901,-4.07937 11.78198,-5.33994 19.33319,-3.44475 7.4795,1.8773 11.90729,1.11356 11.90729,-2.05362 0,-7.72085 27.16669,-6.11857 30.19816,1.78129 2.95102,7.69027 17.82285,9.22012 22.11544,2.27479 3.22062,-5.21089 26.42757,-6.17339 31.303,-1.29811 1.78774,1.78793 12.87619,3.4657 24.64036,3.7269 15.53773,0.34608 24.24275,-2.05424 31.8177,-8.77362 8.87985,-7.87682 11.80016,-8.39298 19.67218,-3.47679 7.38906,4.6139 14.42632,4.65851 35.06194,0.22169 14.19976,-3.05299 28.28665,-7.4359 31.30455,-9.73997 3.01773,-2.30388 7.36132,-3.02933 9.65212,-1.61437 2.29064,1.4157 9.54461,-3.92014 16.12044,-11.85768 7.69035,-9.28297 11.87937,-19.69892 11.85974,-27.49083 z"
       style="fill:none;stroke:#ff0000;stroke-width:0.01;stroke-miterlimit:4;stroke-dasharray:none;stroke-opacity:1" />
  </g>
  <g
     style="display:none;opacity:1"
     inkscape:label="brazil_nut_bottom"
     id="layer4"
     inkscape:groupmode="layer">
    <path
       sodipodi:nodetypes="cccccsccccssccccscccccccccsccsccccccsccccccccccccccsccscccsccscsccsccccccccscccccccc"
       inkscape:connector-curvature="0"
       id="path899"
       d="m 430.0016,92.995873 c -0.0343,-2.5659 -1.39095,-4.81796 -4.10724,-6.07922 -3.09801,-1.43837 -3.19915,-2.50586 -0.36432,-3.85713 2.15679,-1.02742 3.15536,-4.77579 2.22157,-8.3292 -2.08741,-7.94211 -19.85157,-12.50633 -26.69191,-6.85798 -5.97505,4.93392 -12.0034,1.6776 -12.0034,-6.48384 0,-9.1792 -12.82488,-19.61595 -17.89968,-14.56656 -7.63673,7.5983 -9.99907,3.99488 -3.1011,-4.73046 8.57428,-10.84554 6.81464,-15.92991 -7.36131,-21.26743 -9.25554,-3.48537 -11.66172,-3.32448 -14.84974,0.99115 -2.09244,2.83281 -4.5656,5.15008 -5.49682,5.15008 -3.39189,0 -19.82619,-16.821893 -19.82619,-20.293863 0,-6.03957 -9.98228,-3.95534 -14.34486,2.99517 -4.01484,6.397173 -4.21886,6.375033 -7.82535,-0.85163 -3.12703,-6.26624 -7.0993,-7.58004 -25.54263,-8.44858 -24.75863,-1.16557 -31.92262,2.64132 -23.1402,12.29693 7.1332,7.841723 7.27258,10.893393 0.49766,10.893393 -2.88626,0 -6.24308,2.68492 -7.46054,5.96656 -1.21695,3.28176 -3.70631,6.96287 -5.53196,8.17935 -1.85205,1.23451 -2.12561,5.00348 -0.61907,8.52402 1.4854,3.47093 2.95047,12.07105 3.25612,19.1115 0.56261,12.96378 5.70505,21.27328 13.20385,21.32479 5.61435,0.0417 5.47928,21.523117 -0.20982,33.362827 -6.36307,13.24227 -23.61038,12.36093 -41.08275,12.37383 -11.43955,0.01 -14.64924,-1.26687 -14.96137,-5.95364 -0.37856,-5.68249 -0.4717,-5.68249 -1.96421,0 -1.43608,5.46794 -8.26119,5.96656 -81.62189,5.96656 -44.028287,0 -84.007287,-1.49664 -88.844207,-3.32538 -0.52853,-0.19996 -1.02344,-0.38579 -1.49035,-0.55707 0,0 -4.63467,-79.339647 -7.865553,-97.715277 C 10.6693,6.32985 0,0 0,0 v 147.21945 l 222.84635,0.006 v 3.19912 H 0 V 300 c 0,0 12.0901,-5.53653 16.643163,-31.34931 2.6024,-14.75383 4.9793,-90.3216 4.9793,-90.3216 1.03847,-0.19094 2.2655,-0.49309 3.71605,-0.85834 37.62145,-9.47325 139.494927,-12.46139 147.724847,-4.33307 3.45935,3.41668 3.87371,3.10823 2.08978,-1.55495 -1.9391,-5.06884 -0.85508,-5.42563 8.43,-2.77606 7.27601,2.07573 9.95084,1.90593 8.43409,-0.53588 -3.06485,-4.93406 39.80156,-1.50371 45.21787,3.69832 2.25227,2.16323 4.87148,8.2785 5.82083,13.58935 0.94909,5.31085 8.85918,7.1126 17.57776,17.26653 14.45233,16.83137 15.37332,18.93783 10.43347,23.85281 -7.28964,7.25308 -13.21909,18.64645 -10.90321,20.95065 1.03338,1.02807 -0.95073,5.44825 -4.40905,9.82266 -8.42859,10.66137 -5.55958,24.60898 6.10868,29.69689 4.93376,2.15138 10.20376,5.86203 11.7109,8.2455 1.61351,2.55175 9.69558,4.33359 19.65513,4.33359 15.96882,0 17.42752,-0.77132 26.08678,-13.79038 5.42811,-8.1612 11.04331,-13.07615 13.75577,-12.0401 2.521,0.9625 4.58369,0.4073 4.58369,-1.23351 0,-1.64042 3.19132,-2.15337 7.09207,-1.13792 4.98658,1.29738 10.83751,-1.67354 19.70423,-10.0061 6.93632,-6.51844 18.00822,-14.32243 24.6047,-17.3421 12.69324,-5.81045 30.84101,-25.96677 30.84101,-34.25475 0,-2.71244 -2.31319,-5.81427 -5.14026,-6.89415 -7.76843,-2.96604 -6.17046,-11.57597 3.29334,-17.74569 10.28708,-6.70515 13.37069,-15.36021 10.35182,-29.03595 -1.45004,-6.56882 -5.30325,-11.49736 -10.53579,-13.4767 -7.64593,-2.89233 -11.86914,-13.51804 -5.37279,-13.51804 3.804,0 11.39899,-16.78356 9.1984,-20.32641 -0.94559,-1.52227 0.57693,-4.66364 3.38326,-6.98097 3.3049,-2.729177 4.96465,-6.040267 4.92579,-8.948287 z m -153.22526,72.814677 -9.86814,3.42253 c -8.54954,2.9654 -10.68467,2.34513 -15.98144,-4.64158 -7.03707,-9.28229 -5.58713,-9.67035 12.59766,-3.37137 z m -1.2387,-42.95914 c 0.0161,0.5434 -0.0388,1.14825 -0.1695,1.81385 -0.74186,3.77867 -4.78673,5.74878 -12.24523,5.96656 -6.1254,0.17782 -11.13692,0.0272 -11.13679,-0.33486 1.3e-4,-0.3625 3.42718,-3.0478 7.61606,-5.96708 8.99702,-6.26959 15.78038,-6.73128 15.93546,-1.47847 z m -8.16126,23.76858 c -0.083,1.99732 -2.69783,2.07413 -9.54514,0.77825 -12.95879,-2.45266 -13.38879,-2.68527 -10.41384,-5.64514 4.21198,-4.1909 17.52169,-2.32795 19.47064,2.72542 0.33649,0.87239 0.51159,1.58222 0.48834,2.14147 z"
       style="fill:none;stroke:#ff0000;stroke-width:0.01;stroke-miterlimit:4;stroke-dasharray:none;stroke-opacity:1" />
  </g>
  <g
     inkscape:groupmode="layer"
     id="g1049"
     inkscape:label="brazil_nut_top"
     style="display:none">
    <path
       sodipodi:nodetypes="cccccsccccssccccscccccccccsccscccsccccccccccccccsccscccsccscccscccccccsccccccccccccscc"
       inkscape:connector-curvature="0"
       id="path1043"
       d="m 430.00159,92.995877 c -0.0343,-2.56589 -1.39095,-4.81796 -4.10724,-6.07921 -3.09801,-1.43837 -3.19915,-2.50586 -0.36432,-3.85713 2.15679,-1.02743 3.15536,-4.77579 2.22157,-8.32921 -2.08741,-7.942104 -19.85157,-12.506324 -26.69191,-6.857984 -5.97505,4.93393 -12.0034,1.67761 -12.0034,-6.48384 0,-9.17919 -12.82488,-19.61594 -17.89968,-14.56655 -7.63673,7.59829 -9.99907,3.99488 -3.1011,-4.73046 8.57428,-10.84554 6.81464,-15.92991 -7.36131,-21.26744 -9.25554,-3.48536 -11.66172,-3.32448 -14.84974,0.99116 -2.09244,2.8328 -4.5656,5.15007 -5.49682,5.15007 -3.39189,0 -19.82619,-16.821883 -19.82619,-20.293853 0,-6.03957 -9.98228,-3.95534 -14.34486,2.99516 -4.01484,6.397173 -4.21886,6.375043 -7.82535,-0.85162 -3.12703,-6.26624 -7.0993,-7.58004 -25.54263,-8.44858 -24.75863,-1.16557 -31.92262,2.64131 -23.1402,12.29692 7.1332,7.841733 7.27258,10.893393 0.49766,10.893393 -2.88626,0 -6.24308,2.68493 -7.46054,5.96656 -1.21695,3.28177 -3.70631,6.96288 -5.53196,8.17935 -1.85205,1.23451 -2.12561,5.00348 -0.61907,8.52403 1.4854,3.47093 2.95047,12.07104 3.25612,19.11149 0.56261,12.963794 5.70505,21.273294 13.20385,21.324804 5.61435,0.0417 5.47928,21.523113 -0.20982,33.362823 -6.36307,13.24227 -23.61038,12.36093 -41.08275,12.37383 -11.43955,0.01 -14.64924,-1.26687 -14.96137,-5.95364 -0.37856,-5.68249 -0.4717,-5.68249 -1.96421,0 -1.43608,5.46794 -8.26119,5.96656 -81.62189,5.96656 -44.02828,0 -84.007282,-1.49664 -88.844202,-3.32538 -0.52853,-0.19996 -1.02344,-0.38579 -1.49035,-0.55707 0,0 -4.69887,-79.733017 -7.929748,-98.108657 C 10.6051,5.93648 0,0 0,0 v 149.90972 150.09029 c 0,0 12.16965,-3.92616 16.669698,-29.74828 2.57031,-14.74888 4.76562,-91.92279 4.76562,-91.92279 1.03847,-0.19094 2.2655,-0.49309 3.71605,-0.85834 37.621452,-9.47325 139.494922,-12.46139 147.724842,-4.33307 3.45935,3.41668 3.87371,3.10823 2.08978,-1.55495 -1.9391,-5.06884 -0.85508,-5.42563 8.43,-2.77606 7.27601,2.07573 9.95084,1.90593 8.43409,-0.53588 -3.06485,-4.93406 40.36283,-0.94244 45.77914,4.25959 2.25227,2.16323 4.87148,8.2785 5.82083,13.58935 0.94909,5.31085 8.485,6.55133 17.20358,16.70526 14.45233,16.83137 15.37332,18.93783 10.43347,23.85281 -7.28964,7.25308 -13.21909,18.64645 -10.90321,20.95065 1.03338,1.02807 -0.95073,5.44825 -4.40905,9.82266 -8.42859,10.66137 -5.55958,24.60898 6.10868,29.69689 4.93376,2.15138 10.20376,5.86203 11.7109,8.2455 1.61351,2.55175 9.69558,4.33359 19.65513,4.33359 15.96882,0 17.42752,-0.77132 26.08678,-13.79038 5.42811,-8.1612 11.04331,-13.07615 13.75577,-12.0401 2.521,0.9625 4.58369,0.4073 4.58369,-1.23351 0,-1.64042 3.19132,-2.15337 7.09207,-1.13792 4.98658,1.29738 10.83751,-1.67354 19.70423,-10.0061 6.93632,-6.51844 18.00822,-14.32243 24.6047,-17.3421 12.69324,-5.81045 30.84101,-25.96677 30.84101,-34.25475 0,-2.71244 -2.31319,-5.81427 -5.14026,-6.89415 -7.76843,-2.96604 -6.17046,-11.57597 3.29334,-17.74569 10.28708,-6.70515 13.37069,-15.36021 10.35182,-29.03595 -0.47008,-2.12952 -1.19442,-4.08534 -2.13475,-5.82549 H 222.84626 v -3.19825 h 35.10846 c 0.0432,0 -0.0993,-0.18827 -0.14211,-0.19636 -12.95879,-2.45266 -13.37019,-2.3132 -10.39524,-5.27307 4.21198,-4.1909 17.52169,-2.32795 19.47064,2.72542 0.33649,0.87239 0.51159,1.58222 0.48834,2.14147 -0.013,0.31355 -0.0886,0.57997 -0.23305,0.80098 l 157.11496,-0.19843 c -1.74962,-2.11793 -3.91591,-3.51656 -6.39135,-4.45296 -7.64593,-2.89233 -11.86914,-13.51804 -5.37279,-13.51804 3.804,0 11.39899,-16.78356 9.1984,-20.32641 -0.94559,-1.52227 0.57693,-4.66364 3.38326,-6.98097 3.3049,-2.729173 4.96465,-6.040273 4.92579,-8.948283 z m -153.22526,72.814683 -9.86814,3.42253 c -8.54954,2.9654 -10.68467,2.34513 -15.98144,-4.64158 -7.03707,-9.28229 -5.58713,-9.67035 12.59766,-3.37137 z m -1.2387,-42.95914 c 0.0161,0.5434 -0.0388,1.14825 -0.1695,1.81385 -0.74186,3.77867 -4.78673,5.74878 -12.24523,5.96656 -6.1254,0.17782 -11.13692,0.0272 -11.13679,-0.33486 1.3e-4,-0.3625 3.42718,-3.0478 7.61606,-5.96708 8.99702,-6.26959 15.78038,-6.73128 15.93546,-1.47847 z"
       style="fill:none;stroke:#ff0000;stroke-width:0.01;stroke-miterlimit:4;stroke-dasharray:none;stroke-opacity:1" />
  </g>
  <g
     style="display:none"
     inkscape:label="pine_bottom"
     id="layer5"
     inkscape:groupmode="layer">
    <path
       sodipodi:nodetypes="cccsccsccsccccsccsccscsccccccscsccssccssssccccccccscccccccscccccccccccccccsccccccccscscccccccsccccccccccccccccccscc"
       inkscape:connector-curvature="0"
       id="path915"
       d="m 573.6409,176.4094 c -0.014,-1.52668 -0.10965,-3.04555 -0.29352,-4.54494 -1.06357,-8.67358 -4.675,-17.7747 -8.02535,-20.2246 -4.47615,-3.27293 -4.91689,-5.62924 -1.6614,-8.88473 5.666,-5.66599 -6.12705,-24.80169 -17.04444,-27.65671 -4.39542,-1.1494 -7.59319,-5.51925 -7.63829,-10.45931 -0.0487,-4.666937 -3.58831,-12.959927 -7.86619,-18.42885 -4.27786,-5.46891 -7.82114,-12.18091 -7.86618,-14.91537 -0.0788,-4.43015 -11.54238,-7.16406 -21.74389,-5.1847 -9.73597,1.88917 -22.09633,-9.53993 -22.09633,-20.43131 0,-17.59523 -12.58226,-21.28615 -48.18207,-14.13402 -16.05484,3.22498 -33.70726,4.57648 -39.22758,3.00241 -5.52048,-1.57393 -18.09104,-1.77271 -27.93525,-0.44081 -17.64652,2.38706 -17.89635,2.63642 -17.70692,17.31936 0.17301,13.43747 -0.82019,14.89728 -10.14202,14.89728 -5.68389,0 -12.72599,2.23682 -15.64865,4.97127 -4.37407,4.09253 -4.82955,3.21347 -2.57659,-4.97127 8.08868,-29.38497 7.5135,-38.92243 -2.97966,-49.41559 -12.22103,-12.22102 -25.97539,-13.10963 -38.24211,-2.47065 -6.35873,5.51402 -12.31691,7.10464 -20.49592,5.46892 -7.1287,-1.4257 -11.53107,-0.63717 -11.53107,2.06602 0,2.40494 -5.36924,7.14924 -11.9321,10.54303 -6.5627,3.39365 -11.93207,8.89482 -11.93207,12.22458 0,3.3296 -4.84336,10.54206 -10.76267,16.02796 -9.10606,8.43923 -10.03655,11.13613 -6.04716,17.52399 3.29729,5.28011 3.43598,8.33984 0.46146,10.178193 -2.52669,1.56131 -3.22728,8.09624 -1.72702,16.094107 3.0602,16.31265 0.46244,17.18924 -7.49154,2.5275 -4.23079,-7.798397 -5.97289,-8.939647 -6.09317,-3.97702 -0.0876,3.82824 -2.16855,6.9603 -4.62399,6.9603 -3.08443,0 -2.93357,1.8439 0.48731,5.96604 4.2917,5.17081 2.23644,5.96604 -15.42285,5.96604 -11.20585,0 -20.34307,-1.34192 -20.31297,-2.98276 0.12042,-5.89493 7.73018,-14.91893 12.73308,-15.09933 9.13331,-0.32906 23.00274,-9.895137 23.00274,-15.865697 0,-3.204393 1.35205,-5.826003 3.00445,-5.826003 3.41818,0 13.52979,-26.76105 13.52579,-35.79679 -0.01,-22.48719 -8.70244,-41.81729 -20.15122,-44.81121 -9.41562,-2.46222 -12.28865,-0.13335 -12.28865,9.96115 0,8.24922 -8.81994,18.94044 -15.6254,18.94044 -2.34391,0 -4.26177,1.78945 -4.26177,3.97702 0,2.18756 -2.74066,3.97753 -6.09058,3.97753 -9.68859,0 -10.79775,9.43411 -3.67056,31.22394 l 6.62696,20.261813 -12.25711,15.476057 -12.25714,15.47554 -49.710154,2.83238 C 44.58047,125.30799 20.37446,125.44767 18.1296,124.06015 v -5.3e-4 c -0.38547,-0.23821 -0.74509,-0.24562 -1.0785,-0.03 0,0 0.28755,-73.95363 -2.01588,-90.72281 C 11.65961,8.73213 0,0 0,0 v 146.47735 h 321.13228 v 3.19825 H 0 V 150.34378 300 c 0,0 13.10789,-6.84098 17.07764,-32.41159 2.34447,-15.10156 1.22066,-89.67891 1.22066,-89.67891 27.273485,-5.06797 53.521156,-5.51082 76.49223,-6.61816 l 57.31846,-2.70836 2.23242,11.51402 c 1.22817,6.33284 1.29588,16.27141 0.15039,22.08548 -1.57258,7.98224 -0.0304,11.66944 6.29626,15.05541 4.80748,2.57286 8.3788,8.39976 8.3788,13.671 3e-5,5.05295 3.32303,12.19485 7.38457,15.87034 6.48827,5.87196 7.97753,5.96778 12.27418,0.79066 2.68965,-3.24077 3.6304,-7.93116 2.09032,-10.42314 -1.54012,-2.49198 -0.43805,-8.94533 2.44946,-14.34073 4.03584,-7.53983 4.18756,-11.5117 0.65682,-17.16536 -3.63434,-5.81812 -3.39489,-7.8157 1.14412,-9.55755 8.10249,-3.10922 12.07635,15.65675 5.79911,27.38592 -2.76336,5.15291 -3.98688,12.04321 -2.73315,15.31224 1.25447,3.26903 -0.29742,8.08369 -3.4489,10.69909 -7.68596,6.37855 -7.23476,14.47622 1.06559,19.1213 3.73771,2.09182 6.87009,8.68648 6.96029,14.65493 0.23828,15.70937 11.28691,21.49948 22.19242,11.63032 7.53637,-6.82038 8.2086,-10.16419 5.56401,-27.67484 -1.65434,-10.95431 -3.17082,-24.98303 -3.36775,-31.17533 -0.19783,-6.19214 -3.49171,-13.54898 -7.31996,-16.34836 -3.82823,-2.79926 -7.02617,-9.36665 -7.10137,-14.59446 -0.0776,-5.22778 -2.69862,-13.9795 -5.82499,-19.44842 -7.28908,-12.75153 -7.32112,-15.91014 -0.15967,-15.91014 3.32825,0 7.84132,6.79097 10.57352,15.91014 2.6217,8.75026 6.46424,15.90962 8.53953,15.90962 2.076,0 2.64768,-2.93809 1.26918,-6.5288 -2.08762,-5.44006 -1.50291,-5.6964 3.50779,-1.53789 3.30735,2.74483 5.02544,6.58962 3.81683,8.54418 -1.20804,1.9547 1.82901,9.20698 6.74894,16.11633 6.07187,8.52718 8.6641,17.32647 8.07029,27.3942 -1.0822,18.3401 7.62878,28.71785 20.20189,24.06672 4.75454,-1.75882 10.52031,-6.35947 12.81263,-10.22364 2.29235,-3.86403 9.09027,-12.05473 15.10607,-18.20148 13.82728,-14.12824 14.62397,-32.12656 1.87378,-42.32403 -4.98499,-3.98699 -8.43428,-10.38174 -7.6631,-14.20998 1.0069,-5.0035 -1.19716,-7.01067 -7.83982,-7.11585 -7.89791,-0.13304 -7.30429,-0.99659 4.08451,-5.94175 14.65842,-6.36504 30.63989,-4.26463 33.99068,4.46743 2.89411,7.54208 14.44166,7.07835 26.04079,-1.04593 5.45012,-3.81758 8.15312,-4.47593 6.34121,-1.5441 -1.81054,2.92944 -1.10637,6.37764 1.65003,8.08116 3.03873,1.87804 0.57947,3.81728 -6.68331,5.26945 -14.1371,2.8275 -29.62599,27.55605 -22.02242,35.15961 3.31004,3.31022 3.4699,6.87695 0.55189,12.32948 -3.26149,6.09397 -1.82044,10.97027 7.0068,23.70811 12.60633,18.19083 11.47476,17.63296 42.17315,20.79407 21.76697,2.24123 23.51996,1.72865 37.78529,-11.04842 13.30218,-11.91419 56.60082,-35.83694 59.54107,-32.89669 1.63407,1.63421 1.89544,19.03013 0.42374,28.18536 -2.14563,13.34749 11.86434,11.71205 30.50253,-3.56051 9.60578,-7.87129 18.69338,-18.31024 20.19515,-23.19755 3.73715,-12.16358 15.6372,-22.80687 25.49974,-22.80687 11.71499,0 22.9154,-19.06347 22.75003,-37.07836 z"
       style="fill:none;stroke:#ff0000;stroke-width:0.01;stroke-miterlimit:4;stroke-dasharray:none;stroke-opacity:1" />
  </g>
  <g
     inkscape:groupmode="layer"
     id="g1065"
     inkscape:label="pine_top"
     style="display:none">
    <path
       sodipodi:nodetypes="cccccccsccsccsccccsccsccscsccccccscsccssccssssccccccccscccscccccccccccccccsccccccccscscccccccsccccccccccccccccccscc"
       inkscape:connector-curvature="0"
       id="path1059"
       d="m 573.6409,176.40941 c -0.014,-1.52669 -0.10966,-3.04555 -0.29353,-4.54494 -1.06356,-8.67358 -4.675,-17.77471 -8.02535,-20.22461 -0.94501,-0.69098 -1.70803,-1.34096 -2.2965,-1.96732 H 321.13796 v -3.19825 h 240.40135 c -0.0226,-1.23496 0.69365,-2.29149 2.12132,-3.71915 5.66599,-5.666 -6.12706,-24.8017 -17.04444,-27.65671 -4.39543,-1.14941 -7.59319,-5.51926 -7.6383,-10.45931 -0.0487,-4.666937 -3.5883,-12.959927 -7.86618,-18.42886 -4.27787,-5.4689 -7.82115,-12.18091 -7.86619,-14.91536 -0.0788,-4.43015 -11.54237,-7.16407 -21.74389,-5.1847 -9.73597,1.88916 -22.09633,-9.53994 -22.09633,-20.43131 0,-17.59523 -12.58226,-21.28615 -48.18207,-14.13402 -16.05483,3.22497 -33.70726,4.57648 -39.22757,3.0024 -5.52049,-1.57393 -18.09104,-1.7727 -27.93525,-0.4408 -17.64652,2.38705 -17.89635,2.63642 -17.70693,17.31935 0.17302,13.43748 -0.82019,14.89729 -10.14202,14.89729 -5.68388,0 -12.72598,2.23682 -15.64865,4.97127 -4.37406,4.09252 -4.82954,3.21346 -2.57659,-4.97127 8.08868,-29.38497 7.51351,-38.92243 -2.97966,-49.41559 -12.22102,-12.22103 -25.97539,-13.10963 -38.2421,-2.47065 -6.35874,5.51401 -12.31691,7.10463 -20.49593,5.46892 -7.12869,-1.42571 -11.53107,-0.63717 -11.53107,2.06602 0,2.40494 -5.36924,7.14924 -11.9321,10.54302 -6.56269,3.39365 -11.93207,8.89483 -11.93207,12.22458 0,3.32961 -4.84336,10.54207 -10.76267,16.02797 -9.10606,8.43923 -10.03654,11.13612 -6.04716,17.52399 3.2973,5.2801 3.43599,8.33984 0.46146,10.178193 -2.52669,1.5613 -3.22728,8.09624 -1.72701,16.094107 3.0602,16.31265 0.46244,17.18923 -7.49154,2.52749 -4.2308,-7.798397 -5.97289,-8.939637 -6.09317,-3.97702 -0.0876,3.82824 -2.16856,6.9603 -4.62399,6.9603 -3.08444,0 -2.93357,1.84391 0.48731,5.96604 4.2917,5.17081 2.23644,5.96605 -15.42286,5.96605 -11.20584,0 -20.34307,-1.34192 -20.31296,-2.98276 0.12041,-5.89493 7.73017,-14.91893 12.73307,-15.09934 9.13331,-0.32905 23.00275,-9.895137 23.00275,-15.865697 0,-3.204383 1.35204,-5.826003 3.00444,-5.826003 3.41818,0 13.52979,-26.76105 13.5258,-35.79678 -0.01,-22.48719 -8.70244,-41.8173 -20.15123,-44.81122 -9.41562,-2.46221 -12.28865,-0.13334 -12.28865,9.96115 0,8.24922 -8.81994,18.94045 -15.62539,18.94045 -2.34392,0 -4.26178,1.78945 -4.26178,3.97701 0,2.18757 -2.74066,3.97754 -6.09057,3.97754 -9.68859,0 -10.79775,9.43411 -3.67057,31.22393 l 6.62697,20.261823 -12.25711,15.476047 -12.25715,15.47554 -49.710149,2.83239 C 44.580466,125.308 20.37445,125.44767 18.12959,124.06015 v -5.3e-4 c -0.38547,-0.23821 -0.74509,-0.24562 -1.07849,-0.03 0,0 0.66172,-72.45692 -1.64171,-89.2261 C 12.03378,10.22884 0,0 0,0 V 150.34378 300 c 0,0 14.42043,-9.8057 18.20071,-35.40501 2.20853,-14.95581 -0.65024,-86.31132 -0.65024,-86.31132 27.273492,-5.06796 54.269511,-5.88499 77.24058,-6.99234 l 57.31846,-2.70836 2.23242,11.51403 c 1.22817,6.33284 1.29588,16.2714 0.15039,22.08547 -1.57257,7.98225 -0.0304,11.66944 6.29627,15.05541 4.80748,2.57286 8.37879,8.39976 8.37879,13.671 3e-5,5.05295 3.32304,12.19485 7.38458,15.87035 6.48827,5.87195 7.97753,5.96778 12.27418,0.79065 2.68965,-3.24076 3.6304,-7.93116 2.09031,-10.42314 -1.54011,-2.49198 -0.43804,-8.94532 2.44946,-14.34072 4.03585,-7.53983 4.18756,-11.5117 0.65683,-17.16536 -3.63434,-5.81812 -3.3949,-7.81571 1.14411,-9.55756 8.10249,-3.10922 12.07635,15.65676 5.79911,27.38593 -2.76336,5.15291 -3.98687,12.04321 -2.73314,15.31224 1.25446,3.26903 -0.29742,8.08369 -3.4489,10.69909 -7.68596,6.37855 -7.23477,14.47621 1.06558,19.1213 3.73772,2.09182 6.87009,8.68648 6.96029,14.65492 0.23828,15.70938 11.28691,21.49949 22.19243,11.63032 7.53636,-6.82038 8.20859,-10.16418 5.564,-27.67483 -1.65433,-10.95431 -3.17082,-24.98304 -3.36775,-31.17534 -0.19783,-6.19214 -3.4917,-13.54897 -7.31996,-16.34835 -3.82823,-2.79926 -7.02617,-9.36666 -7.10136,-14.59446 -0.0776,-5.22778 -2.69862,-13.9795 -5.82499,-19.44843 -7.28909,-12.75153 -7.32113,-15.91013 -0.15968,-15.91013 3.32825,0 7.84133,6.79097 10.57352,15.91013 2.6217,8.75026 6.46425,15.90963 8.53953,15.90963 2.076,0 2.64769,-2.93809 1.26918,-6.5288 -2.08761,-5.44006 -1.50291,-5.6964 3.5078,-1.53789 3.30734,2.74483 5.02544,6.58962 3.81682,8.54418 -1.20803,1.9547 1.82901,9.20698 6.74894,16.11633 6.07187,8.52718 8.6641,17.32646 8.0703,27.39419 -1.0822,18.34011 7.62878,28.71786 20.20189,24.06672 4.75453,-1.75881 10.5203,-6.35947 12.81263,-10.22364 2.29235,-3.86403 9.09026,-12.05473 15.10607,-18.20147 13.82728,-14.12824 14.62397,-32.12656 1.87378,-42.32403 -4.98499,-3.98699 -8.43429,-10.38175 -7.66311,-14.20999 1.0069,-5.0035 -1.19716,-7.01066 -7.83981,-7.11584 -7.89792,-0.13304 -7.3043,-0.9966 4.0845,-5.94176 14.65842,-6.36504 30.63989,-4.26463 33.99068,4.46743 2.89412,7.54208 14.44167,7.07836 26.04079,-1.04593 5.45012,-3.81758 8.15313,-4.47592 6.34122,-1.54409 -1.81054,2.92944 -1.10637,6.37764 1.65003,8.08116 3.03873,1.87804 0.57946,3.81728 -6.68331,5.26944 -14.1371,2.8275 -29.626,27.55606 -22.02243,35.15961 3.31004,3.31022 3.46991,6.87695 0.5519,12.32948 -3.2615,6.09397 -1.82044,10.97028 7.0068,23.70812 12.60633,18.19083 11.47475,17.63296 42.17314,20.79406 21.76697,2.24124 23.51996,1.72866 37.78529,-11.04841 13.30218,-11.9142 56.60082,-35.83694 59.54107,-32.89669 1.63407,1.63421 1.89545,19.03013 0.42375,28.18535 -2.14563,13.3475 11.86433,11.71205 30.50253,-3.5605 9.60578,-7.8713 18.69338,-18.31025 20.19515,-23.19755 3.73714,-12.16359 15.6372,-22.80688 25.49973,-22.80688 11.715,0 22.91541,-19.06346 22.75004,-37.07835 z"
       style="fill:none;stroke:#ff0000;stroke-width:0.01;stroke-miterlimit:4;stroke-dasharray:none;stroke-opacity:1" />
  </g>
</svg>
